<svg id="Sundown" xmlns="http://www.w3.org/2000/svg" viewBox="0 0 26.44 28.28"><g id="HTML"><path d="M8.37,0H9.62V1.33h1.17V0H12V3.88H10.79V2.61H9.64V3.88H8.37m5.35-2.55H12.61V0h3.51V1.33H15V3.88H13.72M16.66,0H18l.85,1.39L19.61,0H21V3.88H19.68V2l-.85,1.37L17.91,2V3.88H16.66M21.56,0h1.27V2.63h1.79V3.88H21.56"/><path d="M8.32,25.93,6.51,5.6H26.44L24.62,25.93l-8.15,2.35" fill="#e44d26"/><path d="M16.47,26.49V7.27h8.15L23.07,24.66" fill="#f16529"/><path d="M10.21,9.77h6.26v2.49H12.94l.23,2.55h3.3v2.5H10.89m0,1.24H13.5l.17,2,2.8.66v2.59l-5.11-1.42" fill="#ebebeb"/><path d="M22.71,9.77H16.47v2.49h6m-.21,2.55h-5.8v2.5h3.06l-.28,3.25-2.78.66v2.59l5.09-1.42" fill="#fff"/></g></svg>