<svg id="Sundown" xmlns="http://www.w3.org/2000/svg" viewBox="0 0 26.44 28.28"><g id="CSharp"><path d="M26.44,15V13.73H25.35V12.54H24.13v1.19H22.38V12.54H21.13v1.19H19.91V15h1.22v1.66H19.91v1.25h1.22V19h1.25V17.93h1.75v1.13h1.22V17.93h1.09V16.64H25.35V15Zm-2.31,1.68H22.38V15h1.75Z" fill="#68217a"/><path d="M17.81,18.81l-.35.46A6.12,6.12,0,0,1,10,21.39a6,6,0,0,1-3.5-6.92,5.7,5.7,0,0,1,4.61-4.61,5.79,5.79,0,0,1,6.25,2.31c.35.46.58.46,1,.2,1.32-.8,2.68-1.54,4-2.3l.76-.35a12.41,12.41,0,0,0-13.27-6A12.55,12.55,0,0,0,0,15.86,12.52,12.52,0,0,0,10,27.92a12.23,12.23,0,0,0,13.17-6Z" fill="#68217a"/></g></svg>