<svg id="Sundown" xmlns="http://www.w3.org/2000/svg" viewBox="0 0 26.44 28.28"><g id="_Group_" data-name="&lt;Group&gt;"><g id="Vector"><path d="M24.26,13.5a11.16,11.16,0,0,0-3-5.6A11.45,11.45,0,0,0,19,6.17h4.3a1,1,0,0,0,.69.26h0a1.07,1.07,0,0,0,.74-.3,1,1,0,0,0,.3-.74A1,1,0,0,0,23.3,4.6H15.61V3H10.9V4.6H3.22a1,1,0,1,0-.69,1.83h0a1,1,0,0,0,.69-.26h4.3A11.45,11.45,0,0,0,5.3,7.9a11.17,11.17,0,0,0-3,5.6H.44v4.71H5.15V13.5H3.87a9.76,9.76,0,0,1,7-7V7.74h1.25c-.38,1-1,2.72-1.83,4.39-2.23,4.67-3.52,5-3.86,5v1.57c1.07,0,2.52,1.09,2.82,3.14H7.76v4.71h11V21.87H17.24c.3-2.05,1.75-3.14,2.82-3.14V17.16c-.34,0-1.63-.36-3.86-5-.8-1.67-1.45-3.35-1.83-4.39h1.24V6.46a9.76,9.76,0,0,1,7,7H21.37v4.71h4.71V13.5ZM3.58,16.64H2V15.07H3.58Zm8.89-12H14V6.17H12.47V4.6Zm.79,12.56a.79.79,0,1,1-.79.79A.79.79,0,0,1,13.26,17.16ZM17.18,25H9.33V23.44h7.85V25ZM14.77,12.79a23.44,23.44,0,0,0,2.28,3.92,7.53,7.53,0,0,0,1,1.08,5,5,0,0,0-1.05.92,5.92,5.92,0,0,0-1.32,3.16h-4.8a5.86,5.86,0,0,0-1.33-3.16,4.74,4.74,0,0,0-1-.92,8.17,8.17,0,0,0,1-1.08,22.81,22.81,0,0,0,2.27-3.92c.26-.55.51-1.09.73-1.62v4.56a2.36,2.36,0,1,0,1.57,0V11.17C14.27,11.7,14.51,12.24,14.77,12.79Zm9.74,3.85H22.94V15.07h1.57Z" fill="#383a47"/></g></g></svg>