<svg id="Sundown" xmlns="http://www.w3.org/2000/svg" viewBox="0 0 26.44 28.28"><g id="NPM"><path d="M0,18H26.44v8.81H13.21v1.46H7.27V26.82H0Zm1.47,7.34H4.4V20.94H5.86v4.41H7.33V19.41H1.39Zm7.34-5.94v7.35h2.93V25.29h2.93V19.35Zm2.93,1.47h1.47v3H11.74Zm4.42-1.47v5.94h2.93V20.94H20.5v4.41H22V20.94h1.49v4.41h1.46V19.41Z" fill="#cb3837"/><polygon points="1.47 25.35 4.4 25.35 4.4 20.94 5.86 20.94 5.86 25.35 7.35 25.35 7.35 19.47 1.47 19.47 1.47 25.35" fill="#fff"/><path d="M8.81,19.47v7.35h2.93V25.35h2.93V19.41Zm4.4,4.4H11.74V20.94h1.47Z" fill="#fff"/><polygon points="16.16 19.47 16.16 25.35 19.09 25.35 19.09 20.94 20.56 20.94 20.56 25.35 22.02 25.35 22.02 20.94 23.51 20.94 23.51 25.35 24.97 25.35 24.97 19.47 16.16 19.47" fill="#fff"/></g></svg>