<svg id="Sundown" xmlns="http://www.w3.org/2000/svg" viewBox="0 0 26.44 28.28"><g id="Typescript"><rect x="0.07" y="4.19" width="26.37" height="24.09" fill="#007acc"/><path d="M12.12,25H10V16.22H7.35V14.38h7.46v1.84H12.12Z" fill="#fcfcfc"/><path d="M19.06,20.32A5.43,5.43,0,0,1,17,19.05a2.68,2.68,0,0,1-.56-1.77A2.89,2.89,0,0,1,17.33,15a3.72,3.72,0,0,1,2.54-.82,6,6,0,0,1,1.46.17,7.38,7.38,0,0,1,1.44.48v2.08a5,5,0,0,0-1.38-.7A3.78,3.78,0,0,0,20,16a1.79,1.79,0,0,0-1.15.29,1.05,1.05,0,0,0-.42.87,1,1,0,0,0,.3.73,4,4,0,0,0,1.23.63l.91.35a4.47,4.47,0,0,1,1.88,1.23,3.14,3.14,0,0,1,.6,2,2.92,2.92,0,0,1-1,2.4,4.45,4.45,0,0,1-2.85.79A7,7,0,0,1,18,25a6.54,6.54,0,0,1-1.53-.56V22.39a7.81,7.81,0,0,0,1.63.89,4.25,4.25,0,0,0,1.54.29,1.87,1.87,0,0,0,1.21-.35,1.27,1.27,0,0,0,.42-1,1.31,1.31,0,0,0-.29-.83,1.64,1.64,0,0,0-.78-.69Z" fill="#fcfcfc"/></g></svg>