<svg id="Sundown" xmlns="http://www.w3.org/2000/svg" viewBox="0 0 26.44 28.28"><g id="CSS"><g id="g3013"><polygon id="polygon2989" points="26.4 5.61 24.58 25.92 16.46 28.18 8.33 25.92 6.51 5.61 26.4 5.61" fill="#264de4"/><polygon id="polygon2991" points="23.03 24.62 24.58 7.28 16.46 7.28 16.46 26.44 23.03 24.62" fill="#2965f1"/><polygon id="polygon2993" points="10.66 14.8 10.87 17.29 16.46 17.29 16.46 14.8 10.66 14.8" fill="#ebebeb"/><polygon id="polygon2995" points="16.46 9.75 16.46 9.75 10.21 9.75 10.45 12.25 16.46 12.25 16.46 9.75" fill="#ebebeb"/><polygon id="polygon2997" points="16.46 23.87 16.46 21.28 16.46 21.28 13.68 20.52 13.49 18.54 12.14 18.54 10.99 18.54 11.34 22.45 16.46 23.87 16.46 23.87" fill="#ebebeb"/><path id="path2999" d="M11.2,0h3V1.37H12.45V2.62h1.77V3.89h-3Z"/><path id="path3001" d="M14.81,0h3V1.2H16.08v.21h1.74V3.93h-3V2.78h1.76V2.57H14.81Z"/><path id="path3003" d="M18.43,0h3V1.2H19.68v.21h1.77V3.93h-3V2.78h1.75V2.57H18.43Z"/><polygon id="polygon3005" points="19.52 17.29 19.24 20.52 16.46 21.28 16.46 23.87 21.55 22.45 21.59 22.03 22.18 15.48 22.23 14.8 22.68 9.75 16.46 9.75 16.46 12.25 19.97 12.25 19.73 14.8 16.46 14.8 16.46 17.29 19.52 17.29" fill="#fff"/></g></g></svg>