<svg id="Sundown" xmlns="http://www.w3.org/2000/svg" xmlns:xlink="http://www.w3.org/1999/xlink" viewBox="0 0 26.44 28.28"><defs><linearGradient id="linear-gradient" x1="-1927.01" y1="178.06" x2="-1926.99" y2="178.08" gradientTransform="translate(3563550.96 -330024.97) scale(1849.27 1853.39)" gradientUnits="userSpaceOnUse"><stop offset="0" stop-color="#387eb8"/><stop offset="1" stop-color="#366994"/></linearGradient><linearGradient id="linear-gradient-2" x1="-1927.35" y1="177.74" x2="-1927.34" y2="177.74" gradientTransform="translate(3564195.21 -329397.53) scale(1849.27 1853.39)" gradientUnits="userSpaceOnUse"><stop offset="0" stop-color="#ffe052"/><stop offset="1" stop-color="#ffc331"/></linearGradient></defs><g id="Python"><path d="M13.22,2C6.46,2,6.94,4.91,6.94,4.91v3h6.28v.93h-9S0,8.38,0,15.13s3.76,6.49,3.76,6.49H6V18.49a3.56,3.56,0,0,1,3.37-3.74H16a3.44,3.44,0,0,0,3.56-3.29v-6S20.13,2,13.22,2ZM9.68,4a1.14,1.14,0,0,1,1.15,1.15h0A1.15,1.15,0,0,1,9.68,6.31h0A1.16,1.16,0,0,1,8.53,5.16h0A1.15,1.15,0,0,1,9.66,4h0Z" fill="url(#linear-gradient)"/><path d="M13.22,28.28c6.75,0,6.28-2.92,6.28-2.92v-3H13.22v-.92h9s4.21.45,4.21-6.31S22.68,8.6,22.68,8.6H20.42v3.18a3.54,3.54,0,0,1-3.37,3.73H10.4A3.41,3.41,0,0,0,6.85,18.8a1.08,1.08,0,0,0,0,.18v5.79S6.31,28.28,13.22,28.28Zm3.53-2a1.15,1.15,0,0,1-1.14-1.15h0A1.14,1.14,0,0,1,16.75,24h0a1.14,1.14,0,0,1,1.15,1.15h0a1.15,1.15,0,0,1-1.12,1.17h0Z" fill="url(#linear-gradient-2)"/></g></svg>