<svg id="Sundown" xmlns="http://www.w3.org/2000/svg" viewBox="0 0 26.44 28.28"><g id="CPP"><polygon points="24.83 14.8 24.83 13.21 23.78 13.21 23.78 14.8 22.17 14.8 22.17 15.87 23.78 15.87 23.78 17.46 24.83 17.46 24.83 15.87 26.44 15.87 26.44 14.8 24.83 14.8" fill="#639ad2"/><path d="M18.92,18.51l5.64,3.24a13,13,0,0,1-14,6.25A13.32,13.32,0,0,1,0,15.19,13.27,13.27,0,0,1,10.5,2.38,13.11,13.11,0,0,1,24.61,8.75l-.83.51c-1.42.8-2.86,1.61-4.27,2.44-.47.29-.69.27-1.08-.22A6.12,6.12,0,0,0,11.8,8.92,6.09,6.09,0,0,0,6.92,13.8a6.38,6.38,0,0,0,3.73,7.32,6.54,6.54,0,0,0,7.88-2.25Z" fill="#639ad2"/><polygon points="19.53 13.21 18.48 13.21 18.48 14.8 16.87 14.8 16.87 15.87 18.48 15.87 18.48 17.46 19.53 17.46 19.53 15.87 21.14 15.87 21.14 14.8 19.53 14.8 19.53 13.21" fill="#639ad2"/></g></svg>