<svg id="Sundown" xmlns="http://www.w3.org/2000/svg" viewBox="0 0 26.44 28.28"><g id="Docker"><path d="M26.17,16.62A3.49,3.49,0,0,0,24,16.06a6,6,0,0,0-1.12.1,4,4,0,0,0-1.84-2.76l-.38-.22-.25.35a5,5,0,0,0-.73,1.53A3.62,3.62,0,0,0,20.15,18a5.12,5.12,0,0,1-2,.41H.83a.82.82,0,0,0-.83.81,12.64,12.64,0,0,0,.72,4.48,6.6,6.6,0,0,0,2.66,3.4A11.94,11.94,0,0,0,9.2,28.28,16.73,16.73,0,0,0,12.43,28a13.49,13.49,0,0,0,4.22-1.51,11.52,11.52,0,0,0,2.88-2.32,15.79,15.79,0,0,0,2.81-4.79h.25a4.07,4.07,0,0,0,2.95-1.1,3.18,3.18,0,0,0,.78-1.14l.11-.31Z" fill="#2395ec"/><path d="M4.37,17.8H2.71a.55.55,0,0,1-.55-.55V15.6a.55.55,0,0,1,.55-.55H4.37a.55.55,0,0,1,.55.55v1.65A.55.55,0,0,1,4.37,17.8Z" fill="#2395ec"/><path d="M7.68,17.8H6a.55.55,0,0,1-.55-.55V15.6A.55.55,0,0,1,6,15.05H7.68a.55.55,0,0,1,.55.55v1.65A.55.55,0,0,1,7.68,17.8Z" fill="#2395ec"/><path d="M11,17.8H9.33a.55.55,0,0,1-.55-.55V15.6a.55.55,0,0,1,.55-.55H11a.55.55,0,0,1,.55.55v1.65A.55.55,0,0,1,11,17.8Z" fill="#2395ec"/><path d="M14.3,17.8H12.64a.55.55,0,0,1-.55-.55V15.6a.55.55,0,0,1,.55-.55H14.3a.55.55,0,0,1,.55.55v1.65A.55.55,0,0,1,14.3,17.8Z" fill="#2395ec"/><path d="M7.68,14.49H6a.55.55,0,0,1-.55-.55V12.29A.55.55,0,0,1,6,11.74H7.68a.55.55,0,0,1,.55.55v1.65A.55.55,0,0,1,7.68,14.49Z" fill="#2395ec"/><path d="M11,14.49H9.33a.55.55,0,0,1-.55-.55V12.29a.55.55,0,0,1,.55-.55H11a.55.55,0,0,1,.55.55v1.65A.55.55,0,0,1,11,14.49Z" fill="#2395ec"/><path d="M14.3,14.49H12.64a.55.55,0,0,1-.55-.55V12.29a.55.55,0,0,1,.55-.55H14.3a.55.55,0,0,1,.55.55v1.65A.55.55,0,0,1,14.3,14.49Z" fill="#2395ec"/><path d="M14.3,11.19H12.64a.56.56,0,0,1-.55-.56V9a.55.55,0,0,1,.55-.55H14.3a.55.55,0,0,1,.55.55v1.65A.56.56,0,0,1,14.3,11.19Z" fill="#2395ec"/><path d="M17.61,17.8H16a.55.55,0,0,1-.55-.55V15.6a.55.55,0,0,1,.55-.55h1.66a.55.55,0,0,1,.55.55v1.65A.55.55,0,0,1,17.61,17.8Z" fill="#2395ec"/></g></svg>