<svg id="Sundown" xmlns="http://www.w3.org/2000/svg" viewBox="0 0 26.44 28.28"><g id="PHP"><circle cx="13.22" cy="15.06" r="13.22" fill="#36447f"/><g id="Layer_2" data-name="Layer 2"><path d="M7.31,13.12a1.57,1.57,0,0,1,1.21.35c.21.22.24.6.14,1.14A1.9,1.9,0,0,1,8,15.82a2.31,2.31,0,0,1-1.42.38h-1l.57-3.08ZM3.42,19.29H5.08l.38-1.95H6.83a4.93,4.93,0,0,0,1.48-.19,3.39,3.39,0,0,0,1-.73,4.07,4.07,0,0,0,.67-.83,3.44,3.44,0,0,0,.33-1,2.34,2.34,0,0,0-.48-1.94,2.34,2.34,0,0,0-2-.71h-3Z" fill="#c9d5f7"/><path d="M11.91,10H13.5l-.38,2h1.45a2.69,2.69,0,0,1,1.83.47A1.54,1.54,0,0,1,16.66,14L16,17.39H14.38L15,14.16v-.73a1.1,1.1,0,0,0-.78-.22H12.86l-.8,4.18H10.47Z" fill="#c9d5f7"/><path d="M20.2,13.12a1.57,1.57,0,0,1,1.21.35c.21.22.23.6.14,1.14a2.05,2.05,0,0,1-.64,1.21,2.32,2.32,0,0,1-1.43.38h-1l.57-3.08Zm-3.9,6.17h1.59l.38-1.95h1.38a4.87,4.87,0,0,0,1.47-.19,3.28,3.28,0,0,0,1.07-.73,3.23,3.23,0,0,0,.64-.83,2.82,2.82,0,0,0,.36-1,2.4,2.4,0,0,0-.38-2,2.51,2.51,0,0,0-2-.71H17.73Z" fill="#c9d5f7"/></g></g></svg>