<svg id="Sundown" xmlns="http://www.w3.org/2000/svg" viewBox="0 0 28 29"><g id="Sass"><path d="M24.39,20.7a5.55,5.55,0,0,0-2.37.47A5.74,5.74,0,0,1,21.5,20a3,3,0,0,1,0-1,4.9,4.9,0,0,1,.31-1.1s0-.27-.58-.27-1,0-1,.24a6.25,6.25,0,0,0-.23.77,17,17,0,0,1-1.58,3.06,2.39,2.39,0,0,1-.36-.89,2.91,2.91,0,0,1,0-1,4.7,4.7,0,0,1,.3-1.11s0-.27-.57-.27-1,.09-1,.23-.12.46-.24.77-1.54,3.23-1.83,4c-.17.38-.3.67-.42.88h0l-.14.27h0a.29.29,0,0,1-.19.25,1.84,1.84,0,0,1,0-.81c.19-1,.64-2.52.64-2.58a.44.44,0,0,0-.29-.42.45.45,0,0,0-.54,0h0s.4-1.74-.79-1.74a3.64,3.64,0,0,0-2.31,1.58l-1.76,1L8,22.13H8c-1.56-1.41-4.26-2.5-4.15-4.59,0-.77.29-2.77,5.17-5.2,4-1.92,7.2-1.42,7.7-.21.79,1.73-1.71,4.95-5.78,5.41a3.14,3.14,0,0,1-2.62-.65c-.21-.23-.25-.25-.32-.21S8,17,8,17.1a2.53,2.53,0,0,0,1.48,1.18,8,8,0,0,0,4.87-.48c2.51-1,4.44-3.68,3.88-5.94s-4.4-3.06-8-1.77a18.17,18.17,0,0,0-6.14,3.52c-2,1.78-2.3,3.47-2.16,4.15.46,2.4,3.85,4,5.08,5.12l-.17.1c-.67.33-3.2,1.64-3.85,3a2.17,2.17,0,0,0,.65,2.87,4.12,4.12,0,0,0,4.4-1.77,4.49,4.49,0,0,0,.42-4h0l.52-.3a9.75,9.75,0,0,1,1-.54A5.66,5.66,0,0,0,9.64,24a3.48,3.48,0,0,0,.77,2.5.82.82,0,0,0,.71.16c.56,0,.81-.46,1.1-1s.65-1.47.65-1.47-.38,2.14.66,2.14c.38,0,.77-.5.94-.75h0v-.1h0c.14-.27.48-.86,1-1.92s1.29-2.91,1.29-2.91A9.6,9.6,0,0,0,17,21.67a13.11,13.11,0,0,0,.54,1.21l-.25.33h0l-.4.5a11.88,11.88,0,0,0-1.21,1.54.41.41,0,0,0,.11.56,1.09,1.09,0,0,0,.64.1,3.51,3.51,0,0,0,1.77-.66A1.76,1.76,0,0,0,19,23.63a3,3,0,0,0-.29-1.15l.12-.2a20.81,20.81,0,0,0,1.44-2.46,9.6,9.6,0,0,0,.25,1.06,8,8,0,0,0,.46,1,4.67,4.67,0,0,0-1.38,1.79c-.31.87,0,1.27.38,1.35a1.54,1.54,0,0,0,.77,0,3.16,3.16,0,0,0,.87-.46,1.94,1.94,0,0,0,1-1.6,2.87,2.87,0,0,0-.23-1,5.13,5.13,0,0,1,2.54-.29c2.26.27,2.72,1.67,2.62,2.27a1.45,1.45,0,0,1-.71,1c-.29,0-.29,0-.29.12s.1,0,.23,0A1.82,1.82,0,0,0,28,23.54C28.07,22.23,26.74,20.69,24.39,20.7ZM6.9,26.6c-.75.83-1.81,1.14-2.25.87s-.29-1.49.69-2.35a11.21,11.21,0,0,1,1.75-1.33l.48-.27h.12A3.26,3.26,0,0,1,6.9,26.6Zm5.47-3.72c-.25.64-.81,2.27-1.14,2.18s-.46-1.31-.11-2.54A5.92,5.92,0,0,1,12,20.88c.4-.45.86-.6,1-.43A8.13,8.13,0,0,1,12.37,22.88ZM16.9,25c-.12,0-.21.1-.27,0h0l.79-.87c.12-.17.27-.36.44-.57h0A1.92,1.92,0,0,1,16.9,25Zm3.49-.77a3.3,3.3,0,0,1,.19-.85,3.5,3.5,0,0,1,.79-1,1.62,1.62,0,0,1,0,.44A1.5,1.5,0,0,1,20.39,24.25Z" fill="#cd6799"/></g></svg>