<svg id="Sundown" xmlns="http://www.w3.org/2000/svg" viewBox="0 0 26.44 28.28"><g id="JSON"><path d="M11,25.87v2.37H9.1a6.74,6.74,0,0,1-4.18-.91,4.88,4.88,0,0,1-1-3.68V21a4,4,0,0,0-.68-2.62,3.38,3.38,0,0,0-2.42-.69H0v-2.4H.78a3.22,3.22,0,0,0,2.42-.72,3.91,3.91,0,0,0,.68-2.61V9.23a4.84,4.84,0,0,1,1-3.68A6.74,6.74,0,0,1,9.1,4.64H11V7H9.43a2.16,2.16,0,0,0-1.74.52,4,4,0,0,0-.44,2.38v2.61a5.14,5.14,0,0,1-.56,2.83,3.1,3.1,0,0,1-2.18,1.09,3.2,3.2,0,0,1,2.18,1.13,5.22,5.22,0,0,1,.61,2.9V23a4.07,4.07,0,0,0,.43,2.33,2.18,2.18,0,0,0,1.74.55Z" fill="#383a47"/><path d="M15.4,25.87h1.52a2.21,2.21,0,0,0,1.74-.54A4,4,0,0,0,19.19,23V20.45a5,5,0,0,1,.56-2.9,3.14,3.14,0,0,1,2.18-1.11,3.07,3.07,0,0,1-2.18-1.07,5,5,0,0,1-.61-2.89V9.91a3.86,3.86,0,0,0-.46-2.31,2.16,2.16,0,0,0-1.74-.52H15.4V4.64h1.87a6.63,6.63,0,0,1,4.22.91,4.84,4.84,0,0,1,1.05,3.68v2.68a3.83,3.83,0,0,0,.67,2.61,3.28,3.28,0,0,0,2.44.72h.79v2.4h-.79a3.28,3.28,0,0,0-2.44.72A3.78,3.78,0,0,0,22.54,21v2.7a4.84,4.84,0,0,1-1.05,3.68,6.66,6.66,0,0,1-4.16.91H15.4Z" fill="#383a47"/></g></svg>