<svg id="Sundown" xmlns="http://www.w3.org/2000/svg" xmlns:xlink="http://www.w3.org/1999/xlink" viewBox="0 0 26.44 28.28"><defs><linearGradient id="linear-gradient" x1="-540.77" y1="920.63" x2="-546.31" y2="910.83" gradientTransform="translate(564 -890)" gradientUnits="userSpaceOnUse"><stop offset="0" stop-color="#fb7655"/><stop offset="0.41" stop-color="#e42b1e"/><stop offset="0.99" stop-color="#900"/><stop offset="1" stop-color="#900"/></linearGradient><linearGradient id="linear-gradient-2" x1="-538" y1="912.4" x2="-545.14" y2="907.6" gradientTransform="translate(564 -890)" gradientUnits="userSpaceOnUse"><stop offset="0" stop-color="#871101"/><stop offset="0.99" stop-color="#911209"/><stop offset="1" stop-color="#911209"/></linearGradient><linearGradient id="linear-gradient-3" x1="-543.71" y1="920.93" x2="-550.84" y2="916.14" xlink:href="#linear-gradient-2"/><linearGradient id="linear-gradient-4" x1="-558.71" y1="908.93" x2="-557.62" y2="916.14" gradientTransform="translate(564 -890)" gradientUnits="userSpaceOnUse"><stop offset="0" stop-color="#fff"/><stop offset="0.23" stop-color="#e57252"/><stop offset="0.46" stop-color="#de3b20"/><stop offset="0.99" stop-color="#a60003"/><stop offset="1" stop-color="#a60003"/></linearGradient><linearGradient id="linear-gradient-5" x1="-551.09" y1="902.21" x2="-550.67" y2="909.55" gradientTransform="translate(564 -890)" gradientUnits="userSpaceOnUse"><stop offset="0" stop-color="#fff"/><stop offset="0.23" stop-color="#e4714e"/><stop offset="0.56" stop-color="#be1a0d"/><stop offset="0.99" stop-color="#a80d00"/><stop offset="1" stop-color="#a80d00"/></linearGradient><linearGradient id="linear-gradient-6" x1="-544.34" y1="895.42" x2="-543.11" y2="900.68" gradientTransform="translate(564 -890)" gradientUnits="userSpaceOnUse"><stop offset="0" stop-color="#fff"/><stop offset="0.18" stop-color="#e46342"/><stop offset="0.4" stop-color="#c82410"/><stop offset="0.99" stop-color="#a80d00"/><stop offset="1" stop-color="#a80d00"/></linearGradient><linearGradient id="linear-gradient-7" x1="-548.06" y1="893.56" x2="-542.8" y2="890.95" gradientTransform="translate(564 -890)" gradientUnits="userSpaceOnUse"><stop offset="0" stop-color="#fff"/><stop offset="0.54" stop-color="#c81f11"/><stop offset="0.99" stop-color="#bf0905"/><stop offset="1" stop-color="#bf0905"/></linearGradient><linearGradient id="linear-gradient-8" x1="-563.33" y1="907.1" x2="-562.89" y2="911.43" gradientTransform="translate(564 -890)" gradientUnits="userSpaceOnUse"><stop offset="0" stop-color="#fff"/><stop offset="0.31" stop-color="#de4024"/><stop offset="0.99" stop-color="#bf190b"/><stop offset="1" stop-color="#bf190b"/></linearGradient><linearGradient id="linear-gradient-9" x1="-566.32" y1="912.59" x2="-545.95" y2="891.65" gradientTransform="translate(564 -890)" gradientUnits="userSpaceOnUse"><stop offset="0" stop-color="#bd0012"/><stop offset="0.07" stop-color="#fff"/><stop offset="0.17" stop-color="#fff"/><stop offset="0.27" stop-color="#c82f1c"/><stop offset="0.33" stop-color="#820c01"/><stop offset="0.46" stop-color="#a31601"/><stop offset="0.72" stop-color="#b31301"/><stop offset="0.99" stop-color="#e82609"/><stop offset="1" stop-color="#e82609"/></linearGradient><linearGradient id="linear-gradient-10" x1="-550.7" y1="914.72" x2="-556.84" y2="913.21" gradientTransform="translate(564 -890)" gradientUnits="userSpaceOnUse"><stop offset="0" stop-color="#8c0c01"/><stop offset="0.54" stop-color="#990c00"/><stop offset="0.99" stop-color="#a80d0e"/><stop offset="1" stop-color="#a80d0e"/></linearGradient><linearGradient id="linear-gradient-11" x1="-540.16" y1="907.35" x2="-545.6" y2="902.48" gradientTransform="translate(564 -890)" gradientUnits="userSpaceOnUse"><stop offset="0" stop-color="#7e110b"/><stop offset="0.99" stop-color="#9e0c00"/><stop offset="1" stop-color="#9e0c00"/></linearGradient><linearGradient id="linear-gradient-12" x1="-538.2" y1="898.44" x2="-540.91" y2="895.52" gradientTransform="translate(564 -890)" gradientUnits="userSpaceOnUse"><stop offset="0" stop-color="#79130d"/><stop offset="0.99" stop-color="#9e120b"/><stop offset="1" stop-color="#9e120b"/></linearGradient><radialGradient id="radial-gradient" cx="-544.77" cy="902.58" r="6.67" gradientTransform="translate(564 -890)" gradientUnits="userSpaceOnUse"><stop offset="0" stop-color="#a80d00"/><stop offset="0.99" stop-color="#7e0e08"/><stop offset="1" stop-color="#7e0e08"/></radialGradient><radialGradient id="radial-gradient-2" cx="-554.01" cy="911.36" r="8.87" gradientTransform="translate(564 -890)" gradientUnits="userSpaceOnUse"><stop offset="0" stop-color="#a30c00"/><stop offset="0.99" stop-color="#800e08"/><stop offset="1" stop-color="#800e08"/></radialGradient><linearGradient id="linear-gradient-13" x1="-560.27" y1="918.21" x2="-562.49" y2="910.7" gradientTransform="translate(564 -890)" gradientUnits="userSpaceOnUse"><stop offset="0" stop-color="#8b2114"/><stop offset="0.43" stop-color="#9e100a"/><stop offset="0.99" stop-color="#b3100c"/><stop offset="1" stop-color="#b3100c"/></linearGradient><linearGradient id="linear-gradient-14" x1="-543.32" y1="893.31" x2="-538.37" y2="895.52" gradientTransform="translate(564 -890)" gradientUnits="userSpaceOnUse"><stop offset="0" stop-color="#b31000"/><stop offset="0.44" stop-color="#910f08"/><stop offset="0.99" stop-color="#791c12"/><stop offset="1" stop-color="#791c12"/></linearGradient></defs><g id="Ruby"><polygon id="polygon3282" points="20.53 19.34 5.51 28.24 24.93 26.92 26.44 7.34 20.53 19.34" fill="url(#linear-gradient)"/><polygon id="polygon3293" points="24.98 26.92 23.31 15.38 18.77 21.38 24.98 26.92" fill="url(#linear-gradient-2)"/><polygon id="polygon3304" points="25 26.92 12.77 25.95 5.58 28.22 25 26.92" fill="url(#linear-gradient-3)"/><polygon id="polygon3319" points="5.61 28.22 8.66 18.21 1.92 19.65 5.61 28.22" fill="url(#linear-gradient-4)"/><polygon id="polygon3334" points="18.77 21.43 15.94 10.42 7.9 17.95 18.77 21.43" fill="url(#linear-gradient-5)"/><polygon id="polygon3349" points="25.79 10.56 18.19 4.35 16.08 11.21 25.79 10.56" fill="url(#linear-gradient-6)"/><polygon id="polygon3362" points="22.24 2.15 17.77 4.61 14.94 2.1 22.24 2.15" fill="url(#linear-gradient-7)"/><polygon id="polygon3375" points="0.16 23.01 2.04 19.6 0.51 15.52 0.16 23.01" fill="url(#linear-gradient-8)"/><path id="path3377" d="M.42,15.38,2,19.72l6.62-1.49,7.56-7,2.15-6.76L14.85,2,9.13,4.19c-1.81,1.67-5.31,5-5.42,5.05S1.46,13.41.42,15.38Z" fill="#fff"/><path id="path3400" d="M5.77,7.62C9.68,3.75,14.71,1.46,16.64,3.4S16.52,10.1,12.53,14,3.75,20.25,1.83,18.3,1.88,11.49,5.77,7.62Z" fill="url(#linear-gradient-9)"/><path id="path3413" d="M5.58,28.24,8.64,18.16,18.7,21.41A22.12,22.12,0,0,1,5.58,28.24Z" fill="url(#linear-gradient-10)"/><path id="path3424" d="M16.15,11.17l2.59,10.24a28.18,28.18,0,0,0,7.09-10.89Z" fill="url(#linear-gradient-11)"/><path id="path3435" d="M25.81,10.59c1-3.2,1.28-7.6-3.59-8.44l-4,2.32Z" fill="url(#linear-gradient-12)"/><path id="path3437" d="M.16,23a4.82,4.82,0,0,0,4.29,5.3,4.74,4.74,0,0,0,1.13,0L2,19.69Z" fill="#9e1209"/><path id="path3448" d="M16.17,11.19l7.14,4.38a16.94,16.94,0,0,0,2.46-5Z" fill="url(#radial-gradient)"/><path id="path3459" d="M8.62,18.16l4.05,7.77a25.3,25.3,0,0,0,6-4.64Z" fill="url(#radial-gradient-2)"/><path id="path3472" d="M1.92,19.69l-.55,7A4.18,4.18,0,0,0,5.58,28C4.36,25.23,2.11,19.6,1.92,19.69Z" fill="url(#linear-gradient-13)"/><path id="path3485" d="M18.19,4.38l8,1.13a4.34,4.34,0,0,0-4-3.36Z" fill="url(#linear-gradient-14)"/></g></svg>