<svg id="Sundown" xmlns="http://www.w3.org/2000/svg" viewBox="0 0 26.44 28.28"><g id="Yarn"><path d="M26.44,20.66a2.31,2.31,0,0,0-2.45-2,9.06,9.06,0,0,0-4.57,1.66,8.12,8.12,0,0,1-1.08.59,8.27,8.27,0,0,0-.49-3.59,8.93,8.93,0,0,0-2-3.28,11.4,11.4,0,0,0,2-4.63A11.49,11.49,0,0,0,17.29,3a1.28,1.28,0,0,0-.83-.68,1.5,1.5,0,0,0-1,0,5.91,5.91,0,0,0-1.27-2A1.73,1.73,0,0,0,12.62.12a3.73,3.73,0,0,0-1.84,2.1c0,.17-.17.34-.22.49a6.18,6.18,0,0,0-4.11,2,2.07,2.07,0,0,1-.88.46h0C4.84,5.4,4.52,6,4.1,7.09a4.71,4.71,0,0,0,.59,4.06,9,9,0,0,0-2.44,3.1,9.83,9.83,0,0,0-.74,4,5.38,5.38,0,0,0-1.49,3,5.82,5.82,0,0,0,.83,3.5,2.88,2.88,0,0,0,.27.34,1.7,1.7,0,0,0,0,.71,1.88,1.88,0,0,0,1,1.34A4.33,4.33,0,0,0,6,27.39a3.36,3.36,0,0,0,2.6.88h0a56.18,56.18,0,0,0,6.21-.56A3.24,3.24,0,0,0,16,27.1a23.89,23.89,0,0,0,5.4-2.45,9.18,9.18,0,0,1,3.26-1.52,2.17,2.17,0,0,0,1.66-2.44Zm-2,1.23a9.08,9.08,0,0,0-3.64,1.66A21.46,21.46,0,0,1,15.45,26a1.35,1.35,0,0,1-.9.52,58.64,58.64,0,0,1-5.92.54c-1.08,0-1.74-.27-1.91-.71a1.43,1.43,0,0,1,.71-1.88l.07,0A3.24,3.24,0,0,1,7,24.06c-.15-.14-.32-.46-.37-.34A6.19,6.19,0,0,1,5.79,26a2.79,2.79,0,0,1-3.06,0c-.92-.49,0-1.66,0-1.66a.68.68,0,0,1-.75-.3,4.48,4.48,0,0,1-.74-2.71,4.91,4.91,0,0,1,1.62-2.64,8.52,8.52,0,0,1,.61-4.06,9.77,9.77,0,0,1,2.91-3.38s-1.79-2-1.13-3.74c.44-1.15.62-1.15.76-1.2a3.22,3.22,0,0,0,1.32-.78A4.91,4.91,0,0,1,11.39,4S12.47.7,13.47,1.36A17.85,17.85,0,0,1,14.87,4s1.2-.69,1.32-.44a10.36,10.36,0,0,1,.46,5.62,12.77,12.77,0,0,1-2.44,4.9,10.11,10.11,0,0,1,2.44,3.64,10.52,10.52,0,0,1,.25,4.89h0a6.09,6.09,0,0,0,3.18-1.22A7.7,7.7,0,0,1,24,19.93a1,1,0,0,1,1.21.74,1,1,0,0,1-.74,1.22Z" fill="#2c8ebb"/></g></svg>