<svg id="Sundown" xmlns="http://www.w3.org/2000/svg" viewBox="0 0 26.44 28.28"><g id="Javascript"><rect y="4.12" width="26.44" height="24.16" fill="#f0da50"/><path d="M7.25,24.44V22a5.16,5.16,0,0,0,1.34,1,3.72,3.72,0,0,0,1.44.31,1.7,1.7,0,0,0,1.26-.4,1.79,1.79,0,0,0,.39-1.32V16.18H9V14.34H13.9v7.21a3.79,3.79,0,0,1-.84,2.78,3.87,3.87,0,0,1-2.76.84A6,6,0,0,1,8.84,25,9,9,0,0,1,7.25,24.44Z" fill="#323230"/><path d="M19.23,20.3A5.72,5.72,0,0,1,17,19a2.69,2.69,0,0,1-.58-1.78,2.87,2.87,0,0,1,1-2.28A3.84,3.84,0,0,1,20,14.16a6.27,6.27,0,0,1,1.5.16A9.82,9.82,0,0,1,23,14.8v2.09a6.36,6.36,0,0,0-1.42-.73,5,5,0,0,0-1.42-.27,2,2,0,0,0-1.19.29,1.1,1.1,0,0,0-.17,1.56l0,.05a4.36,4.36,0,0,0,1.28.63l.94.35A4.5,4.5,0,0,1,23,20a3.15,3.15,0,0,1,.61,2,3,3,0,0,1-1,2.41,4.77,4.77,0,0,1-3,.79A6.85,6.85,0,0,1,18.06,25a8.12,8.12,0,0,1-1.59-.56V22.33a8.83,8.83,0,0,0,1.69.9,5.08,5.08,0,0,0,1.59.29A1.93,1.93,0,0,0,21,23.16,1.16,1.16,0,0,0,21.44,22a1.18,1.18,0,0,0-.31-.83,1.69,1.69,0,0,0-.84-.57Z" fill="#323230"/></g></svg>