<svg id="Sundown" xmlns="http://www.w3.org/2000/svg" xmlns:xlink="http://www.w3.org/1999/xlink" viewBox="0 0 26.44 28.28"><defs><linearGradient id="linear-gradient" x1="-1845.9" y1="127.32" x2="-1845.9" y2="127.99" gradientTransform="translate(73147.92 -4511.68) scale(39.62 35.5)" gradientUnits="userSpaceOnUse"><stop offset="0" stop-color="#f88a36"/><stop offset="1" stop-color="#fd2020"/></linearGradient></defs><g id="Swift"><path id="Swift-2" d="M20,26.7a13.19,13.19,0,0,1-11.73.15A18.42,18.42,0,0,1,0,19.77a14.06,14.06,0,0,0,3,1.85,12.61,12.61,0,0,0,12.07,0h0A63.52,63.52,0,0,1,4,10.14,11.81,11.81,0,0,1,2.53,8a85.63,85.63,0,0,0,10.72,8.23A78.17,78.17,0,0,1,5.67,6.73,75.51,75.51,0,0,0,18.22,17a3.88,3.88,0,0,1,.48.3,7.89,7.89,0,0,0,.34-1A14,14,0,0,0,16.28,4.58c6,3.65,9.6,10.53,8.13,16.22l-.13.46h0c3,3.73,2.11,7.67,1.79,6.93-1.62-3.16-4.61-2.1-6.13-1.55Z" fill="url(#linear-gradient)"/></g></svg>