<svg id="Sundown" xmlns="http://www.w3.org/2000/svg" viewBox="0 0 26.44 28.28"><g id="Java"><path d="M12.32,21.87s-1.09.63.75.84a16.33,16.33,0,0,0,5.87-.23,8.62,8.62,0,0,0,1.56.75C15,25.6,7.91,23.08,12.32,21.87" fill="#5382a1"/><path d="M11.64,18.78s-1.21.9.62,1.08a22.6,22.6,0,0,0,7.56-.35,3.21,3.21,0,0,0,1.23.7c-6.67,2-14.12.15-9.34-1.43" fill="#5382a1"/><path d="M17.32,13.52A2.08,2.08,0,0,1,17,16.46a.18.18,0,0,1-.07.05s3.48-1.78,1.86-4-2.51-3.13,3.55-6.7c0,0-9.66,2.52-5,7.73" fill="#e76f00"/><path d="M24.65,24.22s.81.65-.88,1.15c-3.2,1-13.29,1.26-16.11,0-1-.45.88-1.05,1.48-1.18a4.1,4.1,0,0,1,1,0C9,23.39,2.88,25.73,7,26.41c11.28,1.83,20.57-.83,17.62-2.14" fill="#5382a1"/><path d="M12.82,15.58s-5,1.21-1.81,1.66a40.51,40.51,0,0,0,6.79,0c2.12-.25,4.26-.58,4.26-.58a8.81,8.81,0,0,0-1.29.68c-5.21,1.34-15.3.68-12.31-.68a9.7,9.7,0,0,1,4.46-1" fill="#5382a1"/><path d="M22,20.72c5.31-2.75,2.87-5.39,1.16-5a2.93,2.93,0,0,0-.6.15,1.12,1.12,0,0,1,.45-.35c3.37-1.18,6,3.53-1.11,5.39a.38.38,0,0,0,0-.15" fill="#5382a1"/><path d="M18.83,0s3,3-2.76,7.55c-4.61,3.55-1.06,5.62-.05,8-2.52-2.42-4.61-4.55-3.3-6.42,1.94-3,7.3-4.43,6.11-9.11" fill="#e76f00"/><path d="M13.35,28.19c5,.33,12.91-.17,13.09-2.51,0,0-.36.9-4.21,1.63a41.28,41.28,0,0,1-12.89.2,8.91,8.91,0,0,0,4,.76" fill="#5382a1"/></g></svg>