<svg id="Sundown" xmlns="http://www.w3.org/2000/svg" xmlns:xlink="http://www.w3.org/1999/xlink" viewBox="0 0 26.44 28.28"><defs><clipPath id="clip-path"><path d="M13.42.33l-11,6.35a1.36,1.36,0,0,0-.66,1.15V20.59a1.37,1.37,0,0,0,.66,1.15l11,6.35a1.21,1.21,0,0,0,1.32,0l11-6.35a1.39,1.39,0,0,0,.66-1.15V7.83a1.38,1.38,0,0,0-.66-1.15L14.71.33a1.19,1.19,0,0,0-.63-.19,1.37,1.37,0,0,0-.68.19" fill="none"/></clipPath><linearGradient id="linear-gradient" x1="-1935.83" y1="3" x2="-1935.5" y2="3" gradientTransform="translate(-97905.71 200575.48) rotate(116.11) scale(115.31)" gradientUnits="userSpaceOnUse"><stop offset="0.3" stop-color="#3e863d"/><stop offset="0.5" stop-color="#55934f"/><stop offset="0.8" stop-color="#5aad45"/></linearGradient><clipPath id="clip-path-2"><path d="M2,21.38a1.72,1.72,0,0,0,.4.36l9.38,5.46,1.57.89a1.23,1.23,0,0,0,.77.19h.26L26.09,7a1,1,0,0,0-.31-.26L18.56,2.48,14.71.33a1.09,1.09,0,0,0-.33-.19Z" fill="none"/></clipPath><linearGradient id="linear-gradient-2" x1="-1933.88" y1="21.73" x2="-1933.67" y2="21.73" gradientTransform="matrix(142.41, -105.22, 105.22, 142.41, 273116.71, -206552.58)" gradientUnits="userSpaceOnUse"><stop offset="0.57" stop-color="#3e863d"/><stop offset="0.72" stop-color="#619857"/><stop offset="1" stop-color="#76ac64"/></linearGradient><clipPath id="clip-path-3"><path d="M13.94.14a1.36,1.36,0,0,0-.52.19l-11,6.33L14.27,28.28a1.38,1.38,0,0,0,.47-.16l11-6.36a1.45,1.45,0,0,0,.66-.94L14.34.14H14" fill="none"/></clipPath><linearGradient id="linear-gradient-3" x1="-1927.48" y1="19.93" x2="-1927.29" y2="19.93" gradientTransform="translate(250359.58 -2575.13) scale(129.89)" gradientUnits="userSpaceOnUse"><stop offset="0.16" stop-color="#6bbf47"/><stop offset="0.38" stop-color="#79b461"/><stop offset="0.47" stop-color="#75ac64"/><stop offset="0.7" stop-color="#659e5a"/><stop offset="0.9" stop-color="#3e863d"/></linearGradient></defs><g clip-path="url(#clip-path)"><path d="M37.58,5.6,6.5-9.64-9.44,22.89,21.75,38.1Z" fill="url(#linear-gradient)"/></g><g clip-path="url(#clip-path-2)"><path d="M-11.46,10.11l22,29.71,29-21.46-22-29.69Z" fill="url(#linear-gradient-2)"/></g><g clip-path="url(#clip-path-3)"><path d="M2.42.14V28.28h24V.14Z" fill="url(#linear-gradient-3)"/></g></svg>