<svg id="Sundown" xmlns="http://www.w3.org/2000/svg" viewBox="0 0 26.44 28.28"><g id="Swift"><path id="Swift-2" d="M20,26.7a13.18,13.18,0,0,1-11.74.14A18.37,18.37,0,0,1,0,19.77a14.46,14.46,0,0,0,3,1.85,12.61,12.61,0,0,0,12.07,0h0A63.51,63.51,0,0,1,4,10.14,12.19,12.19,0,0,1,2.53,8a85.63,85.63,0,0,0,10.72,8.23A79.22,79.22,0,0,1,5.66,6.73,76,76,0,0,0,18.22,17a4.71,4.71,0,0,1,.48.29,8.87,8.87,0,0,0,.34-1A14,14,0,0,0,16.28,4.58c6,3.65,9.6,10.53,8.13,16.22l-.13.46h0c3,3.73,2.11,7.67,1.79,6.93-1.62-3.16-4.61-2.1-6.13-1.56Z" fill="#fff"/></g></svg>