<svg id="Sundown" xmlns="http://www.w3.org/2000/svg" viewBox="0 0 26.44 28.28"><g id="Layer_5" data-name="Layer 5"><path d="M0,4.12V28.28H26.44V4.12ZM13.06,24.33a3.93,3.93,0,0,1-2.76.84A6.57,6.57,0,0,1,8.84,25a10.62,10.62,0,0,1-1.59-.54V22a4.9,4.9,0,0,0,1.34,1,3.56,3.56,0,0,0,1.44.32,1.72,1.72,0,0,0,1.25-.4,1.76,1.76,0,0,0,.4-1.32V16.18H9V14.34H13.9v7.21A3.79,3.79,0,0,1,13.06,24.33Zm9.59,0a4.74,4.74,0,0,1-3,.8A7.55,7.55,0,0,1,18.05,25a7.46,7.46,0,0,1-1.58-.57V22.32a7.61,7.61,0,0,0,1.69.9,4.82,4.82,0,0,0,1.59.3A1.93,1.93,0,0,0,21,23.16,1.19,1.19,0,0,0,21.44,22a1.15,1.15,0,0,0-.31-.83,1.67,1.67,0,0,0-.84-.57l-1.06-.31A5.62,5.62,0,0,1,17,19a2.7,2.7,0,0,1-.59-1.77,2.91,2.91,0,0,1,1-2.28A3.9,3.9,0,0,1,20,14.15a6.33,6.33,0,0,1,1.5.17A8,8,0,0,1,23,14.8v2.09a6.36,6.36,0,0,0-1.42-.73,5,5,0,0,0-1.42-.27,2,2,0,0,0-1.2.29,1.12,1.12,0,0,0-.17,1.56l.05.05a4.43,4.43,0,0,0,1.27.63l.94.35A4.38,4.38,0,0,1,23,20a3.12,3.12,0,0,1,.6,2A2.91,2.91,0,0,1,22.65,24.37Z" fill="#fff"/></g></svg>