<svg id="Sundown" xmlns="http://www.w3.org/2000/svg" viewBox="0 0 26.44 28.28"><g id="CSharp"><path d="M26.44,15V13.73H25.35v-1.2H24.13v1.2H22.38v-1.2H21.13v1.2H19.91V15h1.22v1.66H19.91v1.25h1.22V19h1.25V17.93h1.75v1.13h1.22V17.93h1.09V16.64H25.35V15Zm-2.31,1.68H22.38V15h1.75Z" fill="#fff"/><path d="M17.81,18.81l-.35.46A6.14,6.14,0,0,1,10,21.39,6,6,0,0,1,6.5,14.47a5.73,5.73,0,0,1,4.62-4.61,5.78,5.78,0,0,1,6.25,2.3c.35.47.58.47,1,.21,1.32-.81,2.68-1.54,4-2.31l.76-.34A12.43,12.43,0,0,0,9.87,3.67,12.57,12.57,0,0,0,0,15.85,12.53,12.53,0,0,0,10,27.92a12.24,12.24,0,0,0,13.18-6Z" fill="#fff"/></g></svg>