<svg id="Sundown" xmlns="http://www.w3.org/2000/svg" viewBox="0 0 26.44 28.28"><g id="Vector"><path d="M24.26,13.5a11.06,11.06,0,0,0-3.05-5.6A10.74,10.74,0,0,0,19,6.17h4.3a1,1,0,0,0,.69.26h0a1,1,0,0,0,.74-.31A1,1,0,0,0,24,4.34a1,1,0,0,0-.69.26H15.61V3H10.9V4.6H3.22a1.07,1.07,0,0,0-.69-.26,1,1,0,1,0,0,2.09h0a1,1,0,0,0,.69-.26h4.3A10.8,10.8,0,0,0,5.3,7.9a11.13,11.13,0,0,0-3,5.6H.44v4.71H5.15V13.5H3.86a9.77,9.77,0,0,1,7-7V7.74h1.25c-.39,1-1,2.72-1.83,4.38-2.23,4.68-3.52,5-3.87,5v1.57c1.08,0,2.53,1.09,2.83,3.14H7.76v4.71h11V21.87H17.24c.3-2.05,1.74-3.14,2.82-3.14V17.16c-.34,0-1.64-.36-3.86-5-.8-1.66-1.45-3.34-1.83-4.38h1.24V6.46a9.74,9.74,0,0,1,7,7H21.37v4.71h4.71V13.5ZM3.58,16.64H2V15.07H3.58Zm8.89-12H14V6.17H12.47V4.6Zm.79,12.56a.79.79,0,1,1-.79.79A.78.78,0,0,1,13.26,17.16ZM17.18,25H9.33V23.44h7.85V25ZM14.77,12.79a22.9,22.9,0,0,0,2.28,3.91,7.68,7.68,0,0,0,1,1.09,5,5,0,0,0-1,.92,5.85,5.85,0,0,0-1.32,3.16h-4.8a5.86,5.86,0,0,0-1.33-3.16,4.5,4.5,0,0,0-1-.92,7.7,7.7,0,0,0,1-1.09,22.94,22.94,0,0,0,2.27-3.91c.26-.55.51-1.1.73-1.62v4.56a2.36,2.36,0,1,0,1.57,0V11.17C14.27,11.69,14.51,12.24,14.77,12.79Zm9.74,3.85H22.94V15.07h1.57Z" fill="#fff"/></g></svg>