<svg id="Sundown" xmlns="http://www.w3.org/2000/svg" viewBox="0 0 26.44 28.28"><g id="CSS"><g id="g3013"><path id="path2999" d="M11.2,0h3V1.36H12.45V2.61h1.77V3.89h-3Z" fill="#fff"/><path id="path3001" d="M14.8,0h3V1.2H16.08v.21h1.74V3.93h-3V2.78h1.77V2.57H14.8Z" fill="#fff"/><path id="path3003" d="M18.43,0h3V1.2H19.68v.21h1.77V3.93h-3V2.78h1.75V2.57H18.43Z" fill="#fff"/><path d="M6.51,5.61,8.33,25.92l8.12,2.26,8.13-2.26L26.4,5.61Zm15.72,9.18-.05.69L21.59,22l-.05.42-5.09,1.42-5.11-1.42L11,18.54h2.5l.18,2,2.78.75,2.78-.75.29-3.23H10.87l-.21-2.5h9.07L20,12.25H10.45l-.24-2.5H22.67Z" fill="#fff"/></g></g></svg>