<svg id="Sundown" xmlns="http://www.w3.org/2000/svg" viewBox="0 0 26.44 28.28"><g id="JSON"><path d="M11,25.87v2.37H9.1a6.72,6.72,0,0,1-4.18-.91,4.91,4.91,0,0,1-1-3.68V21a4,4,0,0,0-.67-2.62,3.39,3.39,0,0,0-2.42-.69H0v-2.4H.78a3.26,3.26,0,0,0,2.42-.72,3.85,3.85,0,0,0,.67-2.61V9.23a4.84,4.84,0,0,1,1-3.68A6.72,6.72,0,0,1,9.1,4.64H11V7H9.43a2.16,2.16,0,0,0-1.74.52,4,4,0,0,0-.44,2.38v2.61a5.06,5.06,0,0,1-.57,2.83,3.09,3.09,0,0,1-2.17,1.09,3.08,3.08,0,0,1,2.17,1.13,5,5,0,0,1,.61,2.9V23a4.19,4.19,0,0,0,.44,2.33,2.18,2.18,0,0,0,1.74.55Z" fill="#fff"/><path d="M15.39,25.87h1.53a2.18,2.18,0,0,0,1.74-.55A3.87,3.87,0,0,0,19.18,23V20.44a5.09,5.09,0,0,1,.57-2.89,3.14,3.14,0,0,1,2.18-1.11,3.07,3.07,0,0,1-2.18-1.07,5,5,0,0,1-.61-2.9V9.91a3.86,3.86,0,0,0-.46-2.31,2.2,2.2,0,0,0-1.74-.53H15.39V4.64h1.88a6.58,6.58,0,0,1,4.22.91,4.84,4.84,0,0,1,1.05,3.68v2.68a3.85,3.85,0,0,0,.67,2.61,3.27,3.27,0,0,0,2.44.72h.79v2.4h-.79a3.31,3.31,0,0,0-2.44.71,3.82,3.82,0,0,0-.67,2.6v2.7a4.91,4.91,0,0,1-1.05,3.68,6.66,6.66,0,0,1-4.16.91H15.39Z" fill="#fff"/></g></svg>