<svg id="Sundown" xmlns="http://www.w3.org/2000/svg" viewBox="0 0 26.44 28.28"><g id="HTML"><path d="M8.37,0H9.62V1.33h1.17V0H12V3.88H10.79V2.6H9.64V3.88H8.37m5.34-2.55h-1.1V0h3.51V1.33H15V3.88H13.71M16.66,0H18l.85,1.39L19.6,0H21V3.88H19.67V2l-.84,1.37L17.91,2V3.88H16.66M21.56,0h1.27V2.63h1.79V3.88H21.56" fill="#fff"/><path d="M6.51,5.6,8.32,25.93l8.15,2.35,8.15-2.35L26.44,5.6Zm16,6.66H12.94l.23,2.55h9.1l-.71,7.58-5.09,1.42-5.11-1.42-.47-3.84H13.5l.17,2,2.8.66,2.78-.66.28-3.25H10.89L10.2,9.76H22.71Z" fill="#fff"/></g></svg>