<svg id="Sundown" xmlns="http://www.w3.org/2000/svg" viewBox="0 0 26.44 28.28"><g id="CPP"><polygon points="24.82 14.79 24.82 13.21 23.77 13.21 23.77 14.79 22.16 14.79 22.16 15.87 23.77 15.87 23.77 17.45 24.82 17.45 24.82 15.87 26.43 15.87 26.43 14.79 24.82 14.79" fill="#fff"/><path d="M18.92,18.5l5.64,3.25a13,13,0,0,1-14,6.25A13.31,13.31,0,0,1,0,15.19,13.29,13.29,0,0,1,10.5,2.37,13.12,13.12,0,0,1,24.61,8.74l-.83.52c-1.42.8-2.86,1.61-4.28,2.44-.46.29-.68.26-1.07-.22a6.15,6.15,0,0,0-6.64-2.57,6.11,6.11,0,0,0-4.88,4.88,6.39,6.39,0,0,0,3.74,7.32,6.52,6.52,0,0,0,7.88-2.24Z" fill="#fff"/><polygon points="19.53 13.21 18.48 13.21 18.48 14.79 16.87 14.79 16.87 15.87 18.48 15.87 18.48 17.45 19.53 17.45 19.53 15.87 21.14 15.87 21.14 14.79 19.53 14.79 19.53 13.21" fill="#fff"/></g></svg>