<svg id="Sundown" xmlns="http://www.w3.org/2000/svg" viewBox="0 0 28 29"><g id="Sass"><path d="M24.39,20.7a5.69,5.69,0,0,0-2.37.46A5.2,5.2,0,0,1,21.5,20a3,3,0,0,1,0-1,4.9,4.9,0,0,1,.31-1.1s0-.27-.58-.27-1,0-1,.23a6.82,6.82,0,0,0-.23.77,16.81,16.81,0,0,1-1.58,3.07,2.59,2.59,0,0,1-.37-.89,2.91,2.91,0,0,1,0-1,4.84,4.84,0,0,1,.31-1.12s0-.27-.58-.27-1,.1-1,.23a6.79,6.79,0,0,1-.23.77c-.11.31-1.54,3.24-1.83,4-.17.39-.31.68-.42.89h0l-.14.27h0a.31.31,0,0,1-.19.25,1.85,1.85,0,0,1,0-.81c.19-1,.64-2.52.64-2.58a.44.44,0,0,0-.29-.42.45.45,0,0,0-.54,0h0s.4-1.74-.79-1.74a3.57,3.57,0,0,0-2.31,1.58l-1.76,1L8,22.13H8c-1.56-1.41-4.25-2.51-4.14-4.59,0-.77.29-2.77,5.17-5.2,4-1.93,7.2-1.43,7.7-.21.79,1.73-1.71,4.95-5.78,5.41a3.14,3.14,0,0,1-2.62-.65c-.21-.23-.25-.25-.33-.21S8,17,8,17.1a2.52,2.52,0,0,0,1.49,1.17,7.91,7.91,0,0,0,4.87-.48c2.51-1,4.43-3.68,3.88-5.93s-4.4-3.06-8-1.77a18.14,18.14,0,0,0-6.15,3.52c-2,1.77-2.29,3.47-2.15,4.14.46,2.41,3.85,4,5.08,5.13l-.17.1c-.68.32-3.2,1.63-3.85,3a2.17,2.17,0,0,0,.65,2.87,4.13,4.13,0,0,0,4.39-1.77,4.5,4.5,0,0,0,.43-4h0L9,22.78c.32-.21.67-.38,1-.54A6.12,6.12,0,0,0,9.63,24a3.57,3.57,0,0,0,.77,2.5.89.89,0,0,0,.72.16c.56,0,.81-.47,1.1-1s.65-1.47.65-1.47-.38,2.14.66,2.14c.38,0,.77-.5.94-.75h0v-.1h0c.13-.27.48-.87,1-1.92s1.29-2.91,1.29-2.91A10.16,10.16,0,0,0,17,21.67a9.31,9.31,0,0,0,.54,1.21l-.25.33h0l-.4.5a12.14,12.14,0,0,0-1.22,1.54.42.42,0,0,0,.12.56,1.08,1.08,0,0,0,.64.09,3.18,3.18,0,0,0,1-.21,2.9,2.9,0,0,0,.81-.44A1.78,1.78,0,0,0,19,23.63a3.15,3.15,0,0,0-.29-1.16l.11-.19a21.73,21.73,0,0,0,1.45-2.46,8.13,8.13,0,0,0,.25,1.06,7.33,7.33,0,0,0,.46,1,4.7,4.7,0,0,0-1.39,1.79c-.3.86,0,1.27.39,1.35a1.54,1.54,0,0,0,.77,0,3.63,3.63,0,0,0,.87-.46,2,2,0,0,0,1-1.6,2.93,2.93,0,0,0-.23-1,5.11,5.11,0,0,1,2.54-.29c2.26.27,2.72,1.68,2.62,2.28a1.45,1.45,0,0,1-.71,1c-.29,0-.29,0-.29.11s.1,0,.23,0A1.82,1.82,0,0,0,28,23.53C28.07,22.22,26.74,20.68,24.39,20.7ZM6.9,26.6c-.75.83-1.81,1.13-2.26.86s-.29-1.48.7-2.35a12.6,12.6,0,0,1,1.75-1.33l.48-.26h.12A3.26,3.26,0,0,1,6.9,26.6Zm5.47-3.72c-.25.64-.81,2.27-1.14,2.18s-.46-1.31-.11-2.55A6.11,6.11,0,0,1,12,20.88c.41-.45.87-.6,1-.43A8.13,8.13,0,0,1,12.37,22.88ZM16.9,25c-.12,0-.21.09-.27,0h0l.79-.87c.11-.17.27-.37.44-.58h0A1.92,1.92,0,0,1,16.9,25Zm3.48-.77a3.16,3.16,0,0,1,.2-.85,3.5,3.5,0,0,1,.79-1,3.23,3.23,0,0,1,0,.44A1.51,1.51,0,0,1,20.38,24.25Z" fill="#fff"/></g></svg>