<svg id="Sundown" xmlns="http://www.w3.org/2000/svg" viewBox="0 0 26.44 28.28"><g id="Layer_7" data-name="Layer 7"><path d="M20.19,13.12H19.08l-.57,3.08h1a2.36,2.36,0,0,0,1.43-.38,2.08,2.08,0,0,0,.64-1.21c.09-.54.07-.92-.15-1.14A1.55,1.55,0,0,0,20.19,13.12Z" fill="#fff"/><path d="M13.22,1.84A13.22,13.22,0,1,0,26.44,15.06,13.22,13.22,0,0,0,13.22,1.84ZM10.3,14.61a3.27,3.27,0,0,1-.33,1,4.19,4.19,0,0,1-.67.84,3.31,3.31,0,0,1-1,.73,5.16,5.16,0,0,1-1.47.19H5.46l-.38,1.95H3.42L4.84,12h3a2.38,2.38,0,0,1,2,.72A2.37,2.37,0,0,1,10.3,14.61Zm4.08,2.78L15,14.16v-.73a1.08,1.08,0,0,0-.79-.22H12.86l-.81,4.18H10.46L11.91,10H13.5l-.38,2h1.45a2.69,2.69,0,0,1,1.83.47A1.54,1.54,0,0,1,16.66,14L16,17.39Zm8.45-1.81a3.12,3.12,0,0,1-.64.84,3.39,3.39,0,0,1-1.07.73,5.21,5.21,0,0,1-1.47.19H18.27l-.38,1.95H16.3l1.43-7.43h3.08a2.48,2.48,0,0,1,2,.71,2.33,2.33,0,0,1,.38,2A2.51,2.51,0,0,1,22.83,15.58Z" fill="#fff"/><path d="M7.31,13.12H6.19L5.62,16.2h1A2.31,2.31,0,0,0,8,15.82a2,2,0,0,0,.64-1.21c.1-.54.07-.92-.14-1.14A1.57,1.57,0,0,0,7.31,13.12Z" fill="#fff"/></g></svg>