<svg id="Sundown" xmlns="http://www.w3.org/2000/svg" xmlns:xlink="http://www.w3.org/1999/xlink" viewBox="0 0 26.44 28.28"><defs><clipPath id="clip-path"><path d="M13.42.32l-11,6.36a1.33,1.33,0,0,0-.66,1.15V20.59a1.32,1.32,0,0,0,.66,1.14l11,6.36a1.2,1.2,0,0,0,1.31,0l11.05-6.36a1.36,1.36,0,0,0,.66-1.14V7.83a1.38,1.38,0,0,0-.66-1.15L14.71.32a1.28,1.28,0,0,0-.63-.18,1.33,1.33,0,0,0-.68.18" fill="#fff" stroke="#000" stroke-miterlimit="10"/></clipPath><clipPath id="clip-path-2"><path d="M2,21.38a1.48,1.48,0,0,0,.4.35l9.38,5.47,1.57.89a1.3,1.3,0,0,0,.77.19h.26L26.08,7a.91.91,0,0,0-.3-.25L18.56,2.48,14.71.32a1.06,1.06,0,0,0-.33-.18Z" fill="#fff" stroke="#000" stroke-miterlimit="10"/></clipPath><clipPath id="clip-path-3"><path d="M13.94.14a1.34,1.34,0,0,0-.52.18l-11,6.34L14.26,28.28a1.11,1.11,0,0,0,.47-.17l11.05-6.35a1.45,1.45,0,0,0,.66-.94L14.33.14H14" fill="#fff" stroke="#000" stroke-miterlimit="10"/></clipPath></defs><g id="Layer_6" data-name="Layer 6"><path d="M13.42.32l-11,6.36a1.33,1.33,0,0,0-.66,1.15V20.59a1.32,1.32,0,0,0,.66,1.14l11,6.36a1.2,1.2,0,0,0,1.31,0l11.05-6.36a1.36,1.36,0,0,0,.66-1.14V7.83a1.38,1.38,0,0,0-.66-1.15L14.71.32a1.28,1.28,0,0,0-.63-.18,1.33,1.33,0,0,0-.68.18" fill="#fff"/><g clip-path="url(#clip-path)"><path d="M37.57,5.6,6.5-9.64-9.44,22.88,21.75,38.1Z" fill="#fff" stroke="#000" stroke-miterlimit="10"/></g><path d="M13.42.32l-11,6.36a1.33,1.33,0,0,0-.66,1.15V20.59a1.32,1.32,0,0,0,.66,1.14l11,6.36a1.2,1.2,0,0,0,1.31,0l11.05-6.36a1.36,1.36,0,0,0,.66-1.14V7.83a1.38,1.38,0,0,0-.66-1.15L14.71.32a1.28,1.28,0,0,0-.63-.18,1.33,1.33,0,0,0-.68.18" fill="none" stroke="#000" stroke-miterlimit="10"/><path d="M2,21.38a1.48,1.48,0,0,0,.4.35l9.38,5.47,1.57.89a1.3,1.3,0,0,0,.77.19h.26L26.08,7a.91.91,0,0,0-.3-.25L18.56,2.48,14.71.32a1.06,1.06,0,0,0-.33-.18Z" fill="#fff"/><g clip-path="url(#clip-path-2)"><path d="M-11.46,10.1l22,29.71,29-21.45-22-29.69Z" fill="#fff" stroke="#000" stroke-miterlimit="10"/></g><path d="M2,21.38a1.48,1.48,0,0,0,.4.35l9.38,5.47,1.57.89a1.3,1.3,0,0,0,.77.19h.26L26.08,7a.91.91,0,0,0-.3-.25L18.56,2.48,14.71.32a1.06,1.06,0,0,0-.33-.18Z" fill="none" stroke="#000" stroke-miterlimit="10"/><path d="M13.94.14a1.34,1.34,0,0,0-.52.18l-11,6.34L14.26,28.28a1.11,1.11,0,0,0,.47-.17l11.05-6.35a1.45,1.45,0,0,0,.66-.94L14.33.14H14" fill="#fff"/><g clip-path="url(#clip-path-3)"><path d="M2.42.14V28.28h24V.14Z" fill="#fff" stroke="#000" stroke-miterlimit="10"/></g><path d="M13.94.14a1.34,1.34,0,0,0-.52.18l-11,6.34L14.26,28.28a1.11,1.11,0,0,0,.47-.17l11.05-6.35a1.45,1.45,0,0,0,.66-.94L14.33.14H14" fill="none" stroke="#000" stroke-miterlimit="10"/></g></svg>