<svg id="Sundown" xmlns="http://www.w3.org/2000/svg" viewBox="0 0 26.44 28.28"><g id="Layer_3" data-name="Layer 3"><path d="M.07,4.19V28.28H26.44V4.19Zm14.74,12H12.12V25H10V16.21H7.34V14.38h7.47Zm7.6,8.22a4.45,4.45,0,0,1-2.85.79A7.06,7.06,0,0,1,18,25a6.94,6.94,0,0,1-1.52-.56V22.38a8.35,8.35,0,0,0,1.63.9,4.48,4.48,0,0,0,1.54.29,1.93,1.93,0,0,0,1.21-.35,1.27,1.27,0,0,0,.42-1,1.29,1.29,0,0,0-.3-.84,1.65,1.65,0,0,0-.77-.68l-1.12-.4A5.35,5.35,0,0,1,17,19.05a2.7,2.7,0,0,1-.56-1.77A2.92,2.92,0,0,1,17.33,15a3.76,3.76,0,0,1,2.54-.81,6,6,0,0,1,1.46.17,7.61,7.61,0,0,1,1.44.48v2.08a4.75,4.75,0,0,0-1.38-.71A4.26,4.26,0,0,0,20,16a1.8,1.8,0,0,0-1.15.3,1.09,1.09,0,0,0-.13,1.6,4.22,4.22,0,0,0,1.23.63l.92.35a4.37,4.37,0,0,1,1.88,1.23,3.14,3.14,0,0,1,.6,2A3,3,0,0,1,22.41,24.43Z" fill="#fff"/></g></svg>