<svg id="Sundown" xmlns="http://www.w3.org/2000/svg" viewBox="0 0 26.44 28.28"><g id="Ruby"><polygon id="polygon3282" points="20.53 19.34 5.51 28.24 24.93 26.92 26.43 7.34 20.53 19.34" fill="#fff" stroke="#000" stroke-miterlimit="10"/><polygon id="polygon3293" points="24.98 26.92 23.31 15.38 18.77 21.38 24.98 26.92" fill="#fff" stroke="#000" stroke-miterlimit="10"/><polygon id="polygon3304" points="25 26.92 12.76 25.95 5.58 28.22 25 26.92" fill="#fff" stroke="#000" stroke-miterlimit="10"/><polygon id="polygon3319" points="5.61 28.22 8.66 18.21 1.92 19.64 5.61 28.22" fill="#fff" stroke="#000" stroke-miterlimit="10"/><polygon id="polygon3334" points="18.77 21.43 15.94 10.42 7.9 17.95 18.77 21.43" fill="#fff" stroke="#000" stroke-miterlimit="10"/><polygon id="polygon3349" points="25.79 10.56 18.19 4.35 16.08 11.21 25.79 10.56" fill="#fff" stroke="#000" stroke-miterlimit="10"/><polygon id="polygon3362" points="22.24 2.15 17.77 4.61 14.94 2.1 22.24 2.15" fill="#fff" stroke="#000" stroke-miterlimit="10"/><polygon id="polygon3375" points="0.16 23 2.04 19.6 0.51 15.52 0.16 23" fill="#fff" stroke="#000" stroke-miterlimit="10"/><path id="path3377" d="M.41,15.38l1.53,4.33,6.63-1.48,7.55-7,2.16-6.77L14.85,2,9.13,4.19c-1.81,1.67-5.31,5-5.43,5.05S1.46,13.41.41,15.38Z" fill="#fff" stroke="#000" stroke-miterlimit="10"/><path id="path3400" d="M5.77,7.62C9.68,3.75,14.71,1.45,16.63,3.4s-.11,6.7-4.1,10.57S3.75,20.25,1.83,18.3,1.87,11.49,5.77,7.62Z" fill="#fff" stroke="#000" stroke-miterlimit="10"/><path id="path3413" d="M5.58,28.24,8.64,18.16,18.7,21.4A22.13,22.13,0,0,1,5.58,28.24Z" fill="#fff" stroke="#000" stroke-miterlimit="10"/><path id="path3424" d="M16.15,11.16,18.74,21.4a28.1,28.1,0,0,0,7.09-10.89Z" fill="#fff" stroke="#000" stroke-miterlimit="10"/><path id="path3435" d="M25.81,10.58c1-3.19,1.27-7.6-3.59-8.43l-4,2.32Z" fill="#fff" stroke="#000" stroke-miterlimit="10"/><path id="path3437" d="M.16,23a4.81,4.81,0,0,0,4.29,5.29,4.75,4.75,0,0,0,1.13,0L1.94,19.69Z" fill="#fff" stroke="#000" stroke-miterlimit="10"/><path id="path3448" d="M16.17,11.19l7.14,4.38a16.91,16.91,0,0,0,2.45-5Z" fill="#fff" stroke="#000" stroke-miterlimit="10"/><path id="path3459" d="M8.62,18.16l4.05,7.76a25.47,25.47,0,0,0,6-4.63Z" fill="#fff" stroke="#000" stroke-miterlimit="10"/><path id="path3472" d="M1.92,19.69l-.56,7A4.21,4.21,0,0,0,5.58,28C4.35,25.23,2.11,19.6,1.92,19.69Z" fill="#fff" stroke="#000" stroke-miterlimit="10"/><path id="path3485" d="M18.19,4.37l8,1.14a4.34,4.34,0,0,0-4-3.36Z" fill="#fff" stroke="#000" stroke-miterlimit="10"/></g></svg>