<svg id="Sundown" xmlns="http://www.w3.org/2000/svg" viewBox="0 0 26.44 28.28"><g id="Yarn"><path d="M26.44,20.66a2.31,2.31,0,0,0-2.45-2,9.06,9.06,0,0,0-4.57,1.66,9.45,9.45,0,0,1-1.08.59,8.48,8.48,0,0,0-.49-3.6,8.86,8.86,0,0,0-2-3.27,11.14,11.14,0,0,0,2-4.63A11.48,11.48,0,0,0,17.29,3a1.33,1.33,0,0,0-.83-.69,1.5,1.5,0,0,0-1,0,5.91,5.91,0,0,0-1.28-2A1.79,1.79,0,0,0,12.61.11a3.73,3.73,0,0,0-1.83,2.11c0,.17-.17.34-.22.49a6.18,6.18,0,0,0-4.11,2,2.48,2.48,0,0,1-.88.46h0C4.84,5.4,4.52,6,4.1,7.08a4.71,4.71,0,0,0,.59,4.06,9.15,9.15,0,0,0-2.45,3.11,10,10,0,0,0-.73,4,5.31,5.31,0,0,0-1.49,3,5.82,5.82,0,0,0,.83,3.5,2.88,2.88,0,0,0,.27.34,1.7,1.7,0,0,0,0,.71,1.88,1.88,0,0,0,1,1.34A4.33,4.33,0,0,0,6,27.39a3.42,3.42,0,0,0,2.59.88h0a54,54,0,0,0,6.22-.57A3,3,0,0,0,16,27.09a23.31,23.31,0,0,0,5.41-2.44,9.14,9.14,0,0,1,3.25-1.52,2.18,2.18,0,0,0,1.67-2.45Zm-2,1.22a9.2,9.2,0,0,0-3.65,1.67A21.24,21.24,0,0,1,15.45,26a1.37,1.37,0,0,1-.9.52A56.1,56.1,0,0,1,8.63,27c-1.08,0-1.74-.26-1.91-.71a1.41,1.41,0,0,1,.71-1.87l.07,0A4.14,4.14,0,0,1,7,24.06c-.15-.15-.32-.46-.37-.34A6.25,6.25,0,0,1,5.79,26a2.79,2.79,0,0,1-3.06,0c-.93-.49,0-1.67,0-1.67A.69.69,0,0,1,2,24.06a4.57,4.57,0,0,1-.73-2.71A4.93,4.93,0,0,1,2.86,18.7a8.56,8.56,0,0,1,.61-4.06,9.64,9.64,0,0,1,2.91-3.37s-1.79-2-1.13-3.75c.44-1.14.61-1.14.76-1.19a3.24,3.24,0,0,0,1.32-.79A4.93,4.93,0,0,1,11.39,4S12.47.7,13.47,1.36A17.85,17.85,0,0,1,14.87,4s1.19-.69,1.32-.44a10.54,10.54,0,0,1,.46,5.62A12.68,12.68,0,0,1,14.2,14.1a10.26,10.26,0,0,1,2.45,3.65,10.64,10.64,0,0,1,.25,4.89h0a6.17,6.17,0,0,0,3.18-1.22A7.61,7.61,0,0,1,24,19.93a1,1,0,1,1,.46,1.95Z" fill="#fff"/></g></svg>