<svg id="Sundown" xmlns="http://www.w3.org/2000/svg" viewBox="0 0 26.44 28.28"><g id="Python"><path d="M13.22,2C6.46,2,6.93,4.91,6.93,4.91v3h6.29v.92h-9S0,8.37,0,15.13s3.76,6.49,3.76,6.49H6V18.49a3.56,3.56,0,0,1,3.37-3.74H16a3.44,3.44,0,0,0,3.56-3.29v-6S20.13,2,13.22,2ZM9.68,4a1.14,1.14,0,0,1,1.15,1.14h0A1.14,1.14,0,0,1,9.68,6.3h0A1.15,1.15,0,0,1,8.53,5.15h0A1.16,1.16,0,0,1,9.66,4h0Z" fill="#fff"/><path d="M13.22,28.28c6.75,0,6.28-2.93,6.28-2.93v-3H13.22v-.92h9s4.22.45,4.22-6.31S22.67,8.6,22.67,8.6H20.42v3.17a3.56,3.56,0,0,1-3.37,3.74H10.4A3.42,3.42,0,0,0,6.85,18.8a1.09,1.09,0,0,0,0,.18v5.79S6.3,28.28,13.22,28.28Zm3.53-2a1.15,1.15,0,0,1-1.15-1.14h0A1.15,1.15,0,0,1,16.75,24h0a1.14,1.14,0,0,1,1.15,1.15h0a1.16,1.16,0,0,1-1.13,1.17h0Z" fill="#fff"/></g></svg>