<svg id="Sundown" xmlns="http://www.w3.org/2000/svg" viewBox="0 0 26.44 28.28"><g id="Java"><path d="M12.31,21.87s-1.08.63.76.83a16,16,0,0,0,5.86-.22,9.31,9.31,0,0,0,1.56.75C15,25.6,7.91,23.08,12.31,21.87" fill="#fff"/><path d="M11.63,18.78s-1.2.9.63,1.08a22.52,22.52,0,0,0,7.55-.35,3.32,3.32,0,0,0,1.24.7c-6.67,2-14.12.15-9.34-1.43" fill="#fff"/><path d="M17.32,13.52A2.08,2.08,0,0,1,17,16.46l-.07.05s3.47-1.79,1.86-4-2.51-3.12,3.55-6.69c0,0-9.66,2.51-5,7.73" fill="#fff"/><path d="M24.65,24.21s.8.66-.88,1.16c-3.2,1-13.29,1.26-16.11,0-1-.45.88-1.06,1.48-1.18a4,4,0,0,1,1,0C9,23.38,2.87,25.72,7,26.4c11.28,1.84,20.57-.83,17.62-2.14" fill="#fff"/><path d="M12.82,15.58s-5,1.21-1.82,1.66a40.63,40.63,0,0,0,6.8,0c2.12-.25,4.26-.58,4.26-.58a7.94,7.94,0,0,0-1.29.68c-5.21,1.34-15.3.68-12.31-.68a9.58,9.58,0,0,1,4.46-1" fill="#fff"/><path d="M22,20.71c5.31-2.74,2.87-5.38,1.16-5a3.2,3.2,0,0,0-.61.15,1.13,1.13,0,0,1,.46-.35c3.37-1.18,6,3.52-1.11,5.39a.43.43,0,0,0,0-.16" fill="#fff"/><path d="M18.83,0s3,2.94-2.77,7.55c-4.6,3.55-1,5.61,0,8-2.51-2.42-4.6-4.56-3.29-6.42,1.93-3,7.3-4.43,6.11-9.11" fill="#fff"/><path d="M13.35,28.19c5,.33,12.91-.18,13.09-2.52,0,0-.36.91-4.21,1.64a41.28,41.28,0,0,1-12.89.2,8.91,8.91,0,0,0,4,.76" fill="#fff"/></g></svg>