<svg id="Sundown" xmlns="http://www.w3.org/2000/svg" viewBox="0 0 26.44 28.28"><g id="Layer_4" data-name="Layer 4"><g id="Docker"><path d="M26.17,16.61A3.62,3.62,0,0,0,24,16.06a6.92,6.92,0,0,0-1.11.09,4,4,0,0,0-1.85-2.76l-.37-.21-.25.35a4.9,4.9,0,0,0-.73,1.53A3.63,3.63,0,0,0,20.15,18a5.06,5.06,0,0,1-2,.4H.83a.83.83,0,0,0-.83.82,12.37,12.37,0,0,0,.72,4.47A6.51,6.51,0,0,0,3.38,27,11.82,11.82,0,0,0,9.2,28.28,17.56,17.56,0,0,0,12.43,28a13.75,13.75,0,0,0,4.22-1.51,11.52,11.52,0,0,0,2.87-2.32,15.75,15.75,0,0,0,2.82-4.79h.25a4.07,4.07,0,0,0,2.95-1.1,3.18,3.18,0,0,0,.78-1.14l.11-.31Z" fill="#fff"/><path d="M4.37,17.8H2.71a.55.55,0,0,1-.55-.55V15.6A.56.56,0,0,1,2.71,15H4.37a.56.56,0,0,1,.55.56v1.65A.55.55,0,0,1,4.37,17.8Z" fill="#fff"/><path d="M7.68,17.8H6a.55.55,0,0,1-.55-.55V15.6A.56.56,0,0,1,6,15H7.68a.56.56,0,0,1,.55.56v1.65A.55.55,0,0,1,7.68,17.8Z" fill="#fff"/><path d="M11,17.8H9.33a.55.55,0,0,1-.55-.55V15.6A.56.56,0,0,1,9.33,15H11a.56.56,0,0,1,.55.56v1.65A.55.55,0,0,1,11,17.8Z" fill="#fff"/><path d="M14.3,17.8H12.64a.55.55,0,0,1-.55-.55V15.6a.56.56,0,0,1,.55-.56H14.3a.56.56,0,0,1,.55.56v1.65A.55.55,0,0,1,14.3,17.8Z" fill="#fff"/><path d="M7.68,14.49H6a.55.55,0,0,1-.55-.55V12.29A.56.56,0,0,1,6,11.73H7.68a.56.56,0,0,1,.55.56v1.65A.55.55,0,0,1,7.68,14.49Z" fill="#fff"/><path d="M11,14.49H9.33a.55.55,0,0,1-.55-.55V12.29a.56.56,0,0,1,.55-.56H11a.56.56,0,0,1,.55.56v1.65A.55.55,0,0,1,11,14.49Z" fill="#fff"/><path d="M14.3,14.49H12.64a.55.55,0,0,1-.55-.55V12.29a.56.56,0,0,1,.55-.56H14.3a.56.56,0,0,1,.55.56v1.65A.55.55,0,0,1,14.3,14.49Z" fill="#fff"/><path d="M14.3,11.18H12.64a.55.55,0,0,1-.55-.55V9a.56.56,0,0,1,.55-.56H14.3a.56.56,0,0,1,.55.56v1.65A.55.55,0,0,1,14.3,11.18Z" fill="#fff"/><path d="M17.6,17.8H16a.55.55,0,0,1-.55-.55V15.6A.56.56,0,0,1,16,15H17.6a.56.56,0,0,1,.56.56v1.65A.56.56,0,0,1,17.6,17.8Z" fill="#fff"/></g></g></svg>