<svg id="Icons" xmlns="http://www.w3.org/2000/svg" viewBox="0 0 64 64"><g id="Archive"><polygon points="18.32 63 7.49 54.77 7.49 1 37.8 1 56.51 19.94 56.51 63 18.32 63" fill="#656c70" opacity="0.2"/><path d="M37.38,2l9.06,9.17,9.07,9.18V62H18.66l-5.21-4-5-3.76V2H37.38m.84-2H6.49V55.27l5.75,4.37L18,64H57.51V19.53L47.86,9.77,38.22,0Z" fill="#656c70"/><text transform="matrix(0, -1, 1, 0, 24.21, 56.05)" font-size="13.49" fill="#656c70" font-family="Anurati-Regular, Anurati"><tspan letter-spacing="-0.43em">A</tspan><tspan x="6.33" y="0">RC</tspan></text><polygon points="36 25.72 33 25.72 33 21.25 35.85 21.25 35.85 19.25 33 19.25 33 14.78 35.85 14.78 35.85 12.78 33 12.78 33 8.32 35.85 8.32 35.85 6.32 33 6.32 33 1.98 31 1.98 31 6.32 27.85 6.32 27.85 8.32 31 8.32 31 12.78 27.85 12.78 27.85 14.78 31 14.78 31 19.25 27.85 19.25 27.85 21.25 31 21.25 31 25.72 28 25.72 28 27.72 31 27.72 31 31.98 33 31.98 33 27.72 36 27.72 36 25.72" fill="#656c70"/></g></svg>