<svg id="Icons" xmlns="http://www.w3.org/2000/svg" viewBox="0 0 64 64"><g id="Package"><polygon points="32 0 61.06 13.78 32 27.57 2.94 13.78 32 0" fill="#4ea075" opacity="0.5"/><polygon points="33.13 64 62.2 50.22 62.16 16.04 33.1 29.83 33.13 64" fill="#4ea075" opacity="0.7"/><path d="M1.81,16V50.22L30.87,64V29.83ZM16.34,36.43l-2,.1V34.25l2-.13Zm-11.69-14A3.48,3.48,0,0,1,6,21l1.42,2.11a2.6,2.6,0,0,0-1.15,2.41,5.67,5.67,0,0,0,.32,1.74A6.76,6.76,0,0,0,7.42,29a7.65,7.65,0,0,0,1.27,1.46,6.16,6.16,0,0,0,1.57,1,3.83,3.83,0,0,0,1.57.38,2.35,2.35,0,0,0,1.28-.32,2.21,2.21,0,0,0,.88-.91,3.52,3.52,0,0,0,.3-1.48l1.57-1.72a7.83,7.83,0,0,1,.47,2.64,4.63,4.63,0,0,1-.48,2.19,3.48,3.48,0,0,1-1.31,1.4,3.92,3.92,0,0,1-1.94.45,5.75,5.75,0,0,1-2.33-.56A9.47,9.47,0,0,1,7.91,32,12.34,12.34,0,0,1,6,29.83a11,11,0,0,1-1.3-2.56,7.69,7.69,0,0,1-.5-2.62A4.7,4.7,0,0,1,4.65,22.45ZM12.3,34.36v2.31l-3.53.18,3.54,3.43,2,1.92,2,2v2.26l-12-11.62ZM10.35,52l0-6a2.89,2.89,0,0,0-.59-1.68A3.48,3.48,0,0,0,8.32,43a1.45,1.45,0,0,0-1.4,0,1.2,1.2,0,0,0-.57,1.14l0,4-2,1.07,0-6A2.4,2.4,0,0,1,5.5,40.91,3,3,0,0,1,8.31,41a6.86,6.86,0,0,1,2.84,2.5,6,6,0,0,1,1.18,3.4v4l4,1.87v2Z" fill="#4ea075"/></g></svg>