<svg id="Icons" xmlns="http://www.w3.org/2000/svg" viewBox="0 0 64 64"><g id="Folder"><polygon points="27.66 16.82 18.85 8.64 4.65 8.64 4.65 16.82 27.66 16.82" fill="#ffcd50" fill-opacity="0.8"/><polygon points="40.91 16.82 32.11 8.64 21.98 8.64 30.79 16.82 40.91 16.82" fill="#ffcd50" fill-opacity="0.62"/><path d="M52.49,18.82H4.65v25.3l9.56,11.24H59.35V25.68ZM46.83,29.39v-.26h1.6V35l-1.6,1.6Zm1.6,7.73h4.79v1.6H46.83ZM36.67,30.54a4.81,4.81,0,0,1,8.19,3.39,4.53,4.53,0,0,1-1.43,3.38,4.78,4.78,0,1,1-6.76-6.77ZM34,29.13v1.61H29.2l-1.59-1.61Zm-6.39,4.79H34v1.61H29.2v3.19H27.61ZM28,43.39,27.66,43l1.42-1.42H39.7l1.79,1.8Zm20.49,6.79-1.85-1.86h3.71Zm3.65-3.65H44.88l-1.8-1.79H54Z" fill="#ffcd50"/><path d="M40.05,30.74a3.19,3.19,0,1,0,0,6.38,3.19,3.19,0,0,0,3.19-3.19,3.19,3.19,0,0,0-3.19-3.19Z" fill="#ffcd50"/></g></svg>