<svg id="Icons" xmlns="http://www.w3.org/2000/svg" viewBox="0 0 64 64"><g id="Project"><g opacity="0.7"><polygon points="6.49 0 6.49 46.89 6.49 55.27 12.24 59.63 17.98 64 23.62 64 23.62 0 6.49 0" fill="#1a67d8"/></g><g opacity="0.6"><polygon points="38.22 0 38.08 0 38.08 19.53 57.51 19.53 47.86 9.77 38.22 0" fill="#1a67d8"/></g><polygon points="57.51 62.59 57.51 46.89 57.51 19.53 38.08 19.53 38.08 0 25.62 0 25.62 30.69 57.51 62.59" fill="#1a67d8"/><polygon points="25.62 33.52 25.62 64 56.09 64 25.62 33.52" fill="#1a67d8"/><text transform="translate(20.29 31.7) rotate(-90)" font-size="13.28" fill="#fff" font-family="Anurati-Regular, Anurati" letter-spacing="-0.2em">P<tspan x="7.66" y="0" letter-spacing="0em">RO</tspan></text><polygon points="12.3 35.58 9.67 35.58 9.67 38.21 12.3 35.58" fill="#fff"/><polygon points="9.67 40.74 9.67 43.28 17.37 35.58 14.84 35.58 9.67 40.74" fill="#fff"/><polygon points="20.44 37.59 20.44 35.58 19.91 35.58 10.39 45.1 12.93 45.1 20.44 37.59" fill="#fff"/><polygon points="20.44 42.67 20.44 40.13 15.46 45.1 18 45.1 20.44 42.67" fill="#fff"/></g></svg>