<svg id="Icons" xmlns="http://www.w3.org/2000/svg" viewBox="0 0 64 64"><g id="Folder"><polygon points="31.18 17.65 20.88 8.08 4.26 8.08 4.26 17.65 31.18 17.65" fill="#b7f0f8" /><polygon points="46.31 17.65 36 8.08 24.15 8.08 34.46 17.65 46.31 17.65" fill="#b7f0f8" fill-opacity="0.7"/><polygon points="54.82 20.02 48.9 20.02 42.96 20.02 40.83 20.02 38.61 20.02 37.22 20.02 36.61 20.02 24.77 20.02 24.38 20.02 22.76 20.02 22.76 55.92 24.38 55.92 30.41 55.92 36.61 55.92 37.22 55.92 38.61 55.92 40.83 55.92 42.96 55.92 48.9 55.92 62.17 55.92 62.17 28.33 62.17 26.77 54.82 20.02" fill="#b7f0f8"/><polygon points="20.76 20.02 1.83 20.02 1.83 28.33 1.83 39.37 1.83 44.88 1.83 55.92 12.41 55.92 19.35 55.92 20.76 55.92 20.76 20.02" fill="#b7f0f8" fill-opacity="0.7"/><path d="M6.16,45H8v5.36l-1.8,1.79Zm5.35,5.36V45h1.81v5.36h3.56v1.79H11.51Z" /><path d="M7.74,34.49a5.17,5.17,0,0,1,3.78-1.59,5.11,5.11,0,0,1,3.78,1.59,5.31,5.31,0,0,1,0,7.56,5.31,5.31,0,0,1-7.56,0,5.31,5.31,0,0,1,0-7.56ZM9,40.8a3.43,3.43,0,0,0,2.52,1A3.57,3.57,0,1,0,9,35.75a3.47,3.47,0,0,0-1,2.52A3.43,3.43,0,0,0,9,40.8Z" /><path d="M6.16,28.92h6.5l1.8,1.78H6.16Zm8.93-5.36h1.79V30.7l-1.79-1.78Z" /></g></svg>