<?xml version="1.0" encoding="utf-8"?>
<!-- Generator: Adobe Illustrator 24.2.0, SVG Export Plug-In . SVG Version: 6.00 Build 0)  -->
<svg version="1.1" id="Sundown" xmlns="http://www.w3.org/2000/svg" xmlns:xlink="http://www.w3.org/1999/xlink" x="0px" y="0px"
	 viewBox="0 0 24 24" style="enable-background:new 0 0 24 24;" xml:space="preserve">
<style type="text/css">
	.st0{fill:url(#SVGID_1_);}
	.st1{fill:#9B9B9B;}
	.st2{clip-path:url(#SVGID_2_);}
	.st3{fill:url(#SVGID_4_);}
	.st4{fill:url(#SVGID_5_);}
</style>
<g>
	<linearGradient id="SVGID_1_" gradientUnits="userSpaceOnUse" x1="3.0752" y1="12" x2="20.9609" y2="12">
		<stop  offset="2.567780e-04" style="stop-color:#EDEDED"/>
		<stop  offset="1" style="stop-color:#F9F9F9"/>
	</linearGradient>
	<path class="st0" d="M6,23.9c-1.6,0-2.9-1.3-2.9-2.9V3c0-1.6,1.3-2.9,2.9-2.9h8.4l3.3,3.3L21,6.8l0,14.2c0,1.6-1.3,2.9-2.9,2.9H6z"
		/>
	<path class="st1" d="M14.3,0.2l6.5,6.5V21c0,1.5-1.2,2.8-2.8,2.8H5.9c-1.5,0-2.7-1.2-2.7-2.8V3c0-1.5,1.2-2.8,2.7-2.8H14.3 M14.4,0
		H5.9C4.3,0,3,1.3,3,3v18c0,1.7,1.3,3,3,3H18c1.7,0,3-1.3,3-3V6.7C18.4,4.1,17,2.6,14.4,0L14.4,0z"/>
</g>
<g>
	<defs>
		<path id="SVGID_3_" d="M12,0.2h-1v0.8h1V0.2z M13,0.9h-1v0.8h1V0.9z M12,1.7h-1v0.8h1V1.7z M13,2.5h-1v0.8h1V2.5z M12,3.2h-1V4h1
			V3.2z M13,4h-1v0.8h1V4z M12,4.7h-1v0.7h1V4.7z M13,5.5h-1v0.8h1V5.5z M12,6.2h-1V7h1V6.2z M13,7h-1v0.8h1V7z M12,7.7h-1v0.8h1
			V7.7z M13,8.5h-1v0.8h1V8.5z M12,9.2h-1V10h1V9.2z M13,10h-1v0.8h1V10z M12,10.7h-1v0.8h1V10.7z M13,11.5h-1v0.8h1V11.5z M12,12.2
			h-1V13h1V12.2z M13,13h-1v0.8h1V13z M12,13.7h-1v0.7h1V13.7z M13,14.5h-1v0.8h1V14.5z M12,15.2h-1V16h1V15.2z M13,16h-1v0.8h1V16z
			 M12,16.7h-1v0.7h1V16.7z"/>
	</defs>
	<clipPath id="SVGID_2_">
		<use xlink:href="#SVGID_3_"  style="overflow:visible;"/>
	</clipPath>
	<g class="st2">
		<g>
			<rect x="10" y="-0.8" class="st1" width="4" height="19.2"/>
			<g>
				<path class="st1" d="M13.9-0.6v19h-3.7v-19H13.9 M14.1-0.9H9.9v19.5h4.2V-0.9L14.1-0.9z"/>
			</g>
		</g>
	</g>
</g>
<g>
	<linearGradient id="SVGID_4_" gradientUnits="userSpaceOnUse" x1="10.3364" y1="11.7637" x2="13.6633" y2="11.7637">
		<stop  offset="2.567780e-04" style="stop-color:#EDEDED"/>
		<stop  offset="1" style="stop-color:#F9F9F9"/>
	</linearGradient>
	<path class="st3" d="M11.8,14.2c-0.8,0-1.4-0.7-1.4-1.5c0-0.1,0-0.2,0-0.2l0.2-1.3c0.1-0.9,0.8-1.8,1.5-1.8c0.7,0,1.4,0.8,1.5,1.8
		l0.2,1.3c0.1,0.4,0,0.8-0.2,1.1c-0.2,0.3-0.6,0.5-0.9,0.6c-0.1,0-0.2,0-0.2,0H11.8z M11.9,11.7c-0.5,0-1,0.5-1,1c0,0.5,0.5,1,1,1
		c0.3,0,0.5-0.1,0.7-0.3c0.2-0.2,0.3-0.4,0.3-0.7C12.9,12.1,12.5,11.7,11.9,11.7L11.9,11.7L11.9,11.7z"/>
	<path class="st1" d="M12,9.5c0.6,0,1.3,0.8,1.4,1.7l0.2,1.3c0.1,0.7-0.3,1.4-1.1,1.6c-0.1,0-0.1,0-0.2,0l-0.5,0
		c-0.4,0-0.7-0.2-0.9-0.4c-0.2-0.3-0.4-0.6-0.4-1c0-0.1,0-0.1,0-0.2l0.2-1.3C10.7,10.3,11.4,9.5,12,9.5 M12,13.8L12,13.8L12,13.8
		c0.6,0,1.1-0.5,1.1-1.1c0-0.6-0.5-1.1-1.1-1.1c0,0,0,0,0,0c-0.6,0-1.1,0.5-1.1,1.1C10.9,13.3,11.4,13.8,12,13.8 M12,9.2
		c-0.8,0-1.5,0.9-1.6,1.9l-0.1,1.3c0,0.1,0,0.2,0,0.3c0,0.9,0.7,1.6,1.5,1.6h0.5c0.1,0,0.2,0,0.3,0c0.9-0.2,1.4-1,1.3-1.9l-0.1-1.3
		C13.5,10.1,12.8,9.2,12,9.2L12,9.2z M12,13.5c-0.5,0-0.9-0.4-0.9-0.9c0-0.5,0.4-0.9,0.8-0.9c0,0,0,0,0,0c0.5,0,0.8,0.4,0.9,0.8
		C12.8,13.1,12.5,13.5,12,13.5C12,13.5,12,13.5,12,13.5C12,13.5,12,13.5,12,13.5L12,13.5z"/>
</g>
<g>
	
		<image style="overflow:visible;opacity:0.5;" width="26" height="25" xlink:href="77B8A04F59950352.png"  transform="matrix(1 0 0 1 3 -7)">
	</image>
	<g>
		<linearGradient id="SVGID_5_" gradientUnits="userSpaceOnUse" x1="14.3269" y1="3.4651" x2="20.748" y2="3.4651">
			<stop  offset="2.567780e-04" style="stop-color:#EDEDED"/>
			<stop  offset="1" style="stop-color:#F9F9F9"/>
		</linearGradient>
		<path class="st4" d="M15.2,6.6c-0.2,0-0.5-0.1-0.6-0.3S14.3,6,14.3,5.7l0.1-5.4l6.3,6.3L15.2,6.6z"/>
		<g>
			<path class="st1" d="M14.6,0.6l5.9,5.9l-5.2,0c-0.2,0-0.4-0.1-0.5-0.2c-0.1-0.1-0.2-0.3-0.2-0.5L14.6,0.6 M14.3,0l-0.1,5.7
				c0,0.6,0.4,1,1,1l5.8,0L14.3,0L14.3,0z"/>
		</g>
	</g>
</g>
</svg>
