<svg id="Icons" xmlns="http://www.w3.org/2000/svg" viewBox="0 0 64 64" xmlns:xlink="http://www.w3.org/1999/xlink" width="1em" height="1em"><g id="File"><g opacity="0.8"><path d="M25.62,0H6.49V55.27l5.75,4.37L18,64H30.23V0ZM17.94,12.32V6.93h1.79v7.18H17.94ZM13.43,6.93h1.81v5.39l-1.81,1.79Zm1.81,20.84-1.81,1.79V22.38h1.81ZM13.73,21h-.3V19.19H20L21.78,21Zm10.48,8.58h-5.4V22.38h1.82v5.39h3.58Zm0-15.76V21l-1.8-1.79V13.8h1.37l-1.37-1.48V6.93h1.8Z" fill="#fff"/></g><path d="M31.23,63V1H37.8L56.51,19.94V63ZM50.35,22.13V16.49L41.62,7.65H38V21.48H49.71Z" fill="#fff"/><path d="M37.38,2,42,6.65H37V22.48H49.29l2.06,2.09V22.48h.81l-.81-.82V16.14l4.16,4.21V62H32.23V2h5.15m.84-2h-8V64H57.51V19.53L47.86,9.77,38.22,0ZM49.35,19.69,39,9.23V8.65H41.2l8.15,8.25v2.79Zm-4.73.79L39,14.8V12l8.35,8.46Zm-5.6,0V17.59l2.85,2.89Z" fill="#fff"/></g></svg>