<svg id="Icons" xmlns="http://www.w3.org/2000/svg" viewBox="0 0 64 64"><g id="Folder"><polygon points="29.35 14.22 19.05 4.65 2.43 4.65 2.43 14.22 29.35 14.22" fill="#ffcc3f"/><polygon points="44.47 14.22 34.17 4.65 22.32 4.65 32.63 14.22 44.47 14.22" fill="#ffcc3f" opacity="0.5"/><polygon points="43.01 16.59 43.01 59.35 64 59.35 64 26.49 64 24.63 55.97 16.59 43.01 16.59" fill="#ffcc3f" fill-opacity="0.8"/><rect x="0.13" y="16.72" width="40.43" height="42.5" fill="#ffcc3f"/><path d="M40.43,16.84V59.1H.25V16.84H40.43m.25-.25H0V59.35H40.68V16.59Z" fill="#fff"/><path d="M47.49,47.09h2v6l-2,2Zm6,6v-6h2v6h4v2h-6Z" fill="#fff"/><path d="M49.26,35.26a5.93,5.93,0,0,1,8.49,0,6,6,0,1,1-8.49,0Zm1.42,7.09a3.85,3.85,0,0,0,2.82,1.16,4,4,0,0,0,4-4,4,4,0,1,0-6.83,2.84Z" fill="#fff"/><path d="M47.49,29h7.29l2,2H47.49Zm10-6h2v8l-2-2Z" fill="#fff"/></g></svg>