<svg id="Icons" xmlns="http://www.w3.org/2000/svg" viewBox="0 0 64 64"><g id="Folder"><polygon points="5.65 15.82 5.65 9.64 18.46 9.64 25.11 15.82 5.65 15.82" fill="#fff" opacity="0.15"/><path d="M18.06,10.64l4.5,4.18H6.65V10.64H18.06m.79-2H4.65v8.18h23L18.85,8.64Z" fill="#fff"/><polygon points="31.18 15.82 24.53 9.64 31.71 9.64 38.37 15.82 31.18 15.82" fill="#fff"/><path d="M31.32,10.64l4.5,4.18H31.57l-4.5-4.18h4.25m.79-2H22l8.81,8.18H40.91l-8.8-8.18Z" fill="#fff"/><path d="M52.49,18.85H4.65v25.3l9.56,11.24H59.35V25.71ZM46.83,29.42v-.26h1.6V35l-1.6,1.61Zm1.6,7.73h4.79v1.6H46.83ZM36.67,30.57a4.78,4.78,0,1,1,6.76,6.77,4.78,4.78,0,1,1-6.76-6.77ZM34,29.16v1.6H29.2l-1.59-1.6Zm-6.39,4.78H34v1.62H29.2v3.19H27.61ZM28,43.41,27.66,43l1.42-1.42H39.7l1.79,1.79Zm20.49,6.8-1.85-1.86h3.71Zm3.65-3.65H44.88l-1.8-1.8H54Z" fill="#fff"/><path d="M40.05,30.76a3.2,3.2,0,1,0,0,6.39A3.19,3.19,0,0,0,42.3,31.7,3.09,3.09,0,0,0,40.05,30.76Z" fill="#fff"/></g></svg>