<svg id="Icons" xmlns="http://www.w3.org/2000/svg" viewBox="0 0 64 64"><rect x="-95.24" y="-14.52" width="353.29" height="93.3" fill="#292a30"/><g id="Folder"><polygon points="3.43 13.22 3.43 5.65 18.65 5.65 26.81 13.22 3.43 13.22" fill="#fff" opacity="0.15"/><path d="M18.26,6.65l6,5.57H4.43V6.65H18.26m.79-2H2.43v9.57H29.35L19.05,4.65Z" fill="#fff"/><polygon points="33.02 13.22 24.87 5.65 33.77 5.65 41.93 13.22 33.02 13.22" fill="#fff" opacity="0.2"/><path d="M33.38,6.65l6,5.57h-6l-6-5.57h6m.79-2H22.32l10.31,9.57H44.47L34.17,4.65Z" fill="#fff"/><rect x="1" y="17.59" width="38.68" height="40.75" fill="#fff"/><path d="M38.68,18.59V57.35H2V18.59H38.68m2-2H0V59.35H40.68V16.59Z" fill="#fff"/><path d="M53.51,35.5a4,4,0,1,0,0,8,4,4,0,1,0,0-8Z" fill="#fff"/><path d="M56,16.59H43V59.35H64V24.63ZM47.49,29h7.29l2,2H47.49Zm2,24.11-2,2v-8h2Zm10,2h-6v-8h2v6h4ZM57.75,43.75a6,6,0,1,1-8.49-8.49,5.93,5.93,0,0,1,8.49,0,6,6,0,0,1,0,8.49ZM59.52,31l-2-2V23h2Z" fill="#fff"/></g></svg>