<?xml version="1.0" encoding="utf-8"?>
<!-- Generator: Adobe Illustrator 27.5.0, SVG Export Plug-In . SVG Version: 6.00 Build 0)  -->
<svg version="1.1" xmlns="http://www.w3.org/2000/svg" xmlns:xlink="http://www.w3.org/1999/xlink" x="0px" y="0px"
	 viewBox="0 0 64 64" style="enable-background:new 0 0 64 64;" xml:space="preserve">
<style type="text/css">
	.st0{opacity:0.2;fill:#FFFFFF;enable-background:new    ;}
	.st1{fill:#FFFFFF;}
</style>
<g id="Project">
	<polygon class="st0" points="26.6,30.3 26.6,1 37.8,1 56.5,19.9 56.5,60.2 	"/>
	<path class="st1" d="M37.4,2l9.1,9.2l9.1,9.2v37.4L27.6,29.9V2H37.4 M38.2,0H25.6v30.7l31.9,31.9v-43l-9.6-9.8L38.2,0z"/>
	<polygon class="st0" points="26.6,63 26.6,35.9 53.7,63 	"/>
	<path class="st1" d="M27.6,38.3L51.3,62H27.6V38.3 M25.6,33.5V64h30.5C56.1,64,25.6,33.5,25.6,33.5z"/>
	<polygon class="st1" points="23.6,0 6.5,0 6.5,55.3 12.2,59.6 18,64 23.6,64 23.6,0 	"/>
</g>
</svg>
