<svg id="Icons" xmlns="http://www.w3.org/2000/svg" viewBox="0 0 64 64" xmlns:xlink="http://www.w3.org/1999/xlink" width="1em" height="1em"><g id="File"><polygon points="18.32 63 7.49 54.77 7.49 1 37.8 1 56.51 19.94 56.51 63 18.32 63" fill="#fff" opacity="0.2"/><path d="M37.38,2l9.06,9.17,9.07,9.18V62H18.66l-5.21-4-5-3.76V2H37.38m.84-2H6.49V55.27l5.75,4.37L18,64H57.51V19.53L47.86,9.77,38.22,0Z" fill="#fff"/><polygon points="39.02 17.59 39.02 20.48 41.87 20.48 39.02 17.59" fill="#fff"/><polygon points="44.62 20.48 47.37 20.48 39.02 12.02 39.02 14.8 44.62 20.48" fill="#fff"/><polygon points="41.2 8.64 39.02 8.64 39.02 9.22 49.35 19.69 49.35 16.9 41.2 8.64" fill="#fff"/><polygon points="46.71 8.64 43.95 8.64 49.35 14.11 49.35 11.32 46.71 8.64" fill="#fff"/><path d="M13.43,22.38h1.81v5.39l-1.81,1.79Zm5.38,5.39V22.38h1.82v5.39h3.58v1.79h-5.4Z" fill="#fff"/><path d="M13.43,19.19H20L21.78,21H13.43Zm9-5.39h1.8V21l-1.8-1.79Z" fill="#fff"/><path d="M13.43,6.93h1.81v5.39l-1.81,1.79Zm4.51,5.39V6.93h1.79v7.18H17.94Zm4.47,0V6.93h1.8v7.18h-.14Z" fill="#fff"/></g></svg>