<svg id="Icons" xmlns="http://www.w3.org/2000/svg" viewBox="0 0 64 64"><g id="Package"><polygon points="5.64 13.78 32.37 1.11 59.1 13.78 32.37 26.46 5.64 13.78" fill="#fff" opacity="0.2"/><path d="M32.37,2.21l24.4,11.57L32.37,25.35,8,13.78,32.37,2.21m0-2.21L3.31,13.78,32.37,27.57,61.44,13.78,32.37,0Z" fill="#fff"/><polygon points="34.47 30.46 61.53 17.62 61.56 49.58 34.5 62.42 34.47 30.46" fill="#fff" opacity="0.2"/><path d="M60.54,19.2l0,29.75L35.5,60.84l0-29.75L60.54,19.2m2-3.16L33.47,29.83,33.5,64,62.57,50.22l0-34.18Z" fill="#fff"/><path d="M4.83,50.37l2.93-1.6,0-4.63a.5.5,0,0,1,0-.25l.14,0a1,1,0,0,1,.37.11,2.55,2.55,0,0,1,1,.92A2,2,0,0,1,9.69,46l0,6.68,8,3.73V52.18l-4-1.86V46.91a6.45,6.45,0,0,0-.55-2.53l4.56,4.4v-5l-2.33-2.27-3.89-3.75,2.19-.11V35.09h0v2.49l4-.2V33.05l-.81.06.21-.37a5.66,5.66,0,0,0,.6-2.65,8.7,8.7,0,0,0-.54-3l-.56-1.55-2.95,3.22v.39a2.47,2.47,0,0,1-.21,1.06,1.12,1.12,0,0,1-.44.45,1.43,1.43,0,0,1-.79.2A3,3,0,0,1,11,30.59a5.57,5.57,0,0,1-1.32-.87,7,7,0,0,1-1.1-1.27A5.8,5.8,0,0,1,7.85,27a4.52,4.52,0,0,1-.25-1.42c0-1,.37-1.37.66-1.55l.89-.54L6.63,19.7l-.82.48A4.46,4.46,0,0,0,4.14,22a5.65,5.65,0,0,0-.56,2.66,9,9,0,0,0,.56,2.95,12.16,12.16,0,0,0,1.42,2.78,13,13,0,0,0,2.06,2.36,11.11,11.11,0,0,0,1,.83l-5.48.31V17.62L30.24,30.46v32Zm-1.65-.79V34.76l5.28,5.1a4.54,4.54,0,0,0-1.41-.24,3.29,3.29,0,0,0-3.32,3.62l.06,6.63Z" fill="#fff"/><path d="M4.18,19.21l.75.35a5.9,5.9,0,0,0-.75.66v-1m4.87,2.31L16,24.79l-1.2,1.31-1.58,1.72-.52.57v.78a1.76,1.76,0,0,1-.09.59l0,0,0,0-.06,0a.42.42,0,0,1-.19,0,2.08,2.08,0,0,1-.79-.2,4.47,4.47,0,0,1-1-.7,5.73,5.73,0,0,1-1-1.11,4.83,4.83,0,0,1-.63-1.21,3.58,3.58,0,0,1-.2-1.12c0-.38.05-.61.18-.68l1.78-1.09L9.4,22l-.35-.52m8.65,4.1,11.54,5.47V60.84l-10.53-5v-4.3L17.55,51l-2.84-1.32V47.27l.62.6,3.39,3.27V43.33l-.61-.59-2-2-2-1.92-.24-.23.84,0v0h.1l2-.1,1.9-.1V32h-.25a6.89,6.89,0,0,0,.25-1.91,9.67,9.67,0,0,0-.6-3.32l-.41-1.15M4.18,30.07c.17.3.35.59.55.88a14.29,14.29,0,0,0,1.42,1.77l-1.6.09-.37,0V30.07m0,7,1.71,1.65a4.1,4.1,0,0,0-1,.4,3.85,3.85,0,0,0-.71.51V37.12M8.71,49.39V51.1L7,50.3l.68-.37,1-.54M2.18,16V50.22L31.24,64V29.83L2.18,16ZM13,34.13H13a5.82,5.82,0,0,1-2.33-.56A9.42,9.42,0,0,1,8.29,32a11.57,11.57,0,0,1-1.9-2.18,11.07,11.07,0,0,1-1.31-2.56,7.94,7.94,0,0,1-.5-2.62A4.7,4.7,0,0,1,5,22.45,3.45,3.45,0,0,1,6.32,21l1.42,2.11A2.57,2.57,0,0,0,6.6,25.56a5.37,5.37,0,0,0,.31,1.74A6.76,6.76,0,0,0,7.79,29a8,8,0,0,0,1.27,1.46,6.16,6.16,0,0,0,1.57,1,3.87,3.87,0,0,0,1.57.38h0a2.36,2.36,0,0,0,1.26-.32,2.15,2.15,0,0,0,.88-.91,3.52,3.52,0,0,0,.3-1.48l1.57-1.72a7.85,7.85,0,0,1,.48,2.64,4.63,4.63,0,0,1-.49,2.19,3.41,3.41,0,0,1-1.31,1.4,3.89,3.89,0,0,1-1.87.45Zm1.64,2.4V34.25l2-.13v2.31l-2,.1Zm2,9.9-12-11.62,8-.45v2.31l-3.54.18,3.55,3.43,2,1.92,2,2v2.26ZM4.78,49.25l0-6a2.44,2.44,0,0,1,1.14-2.32,2.37,2.37,0,0,1,1.18-.29,3.93,3.93,0,0,1,1.63.4,6.86,6.86,0,0,1,2.84,2.5,6,6,0,0,1,1.18,3.4v4l4,1.87v2l-6-2.8,0-6a2.89,2.89,0,0,0-.59-1.68A3.48,3.48,0,0,0,8.69,43a1.92,1.92,0,0,0-.79-.2,1.13,1.13,0,0,0-.6.17,1.16,1.16,0,0,0-.57,1.14l0,4-2,1.07Z" fill="#fff"/></g></svg>