<svg id="Icons" xmlns="http://www.w3.org/2000/svg" viewBox="0 0 64 64"><rect x="-95.24" y="-14.52" width="1423.94" height="93.3" fill="#292a30"/><g id="Folder"><polygon points="5.27 16.65 5.27 9.08 20.49 9.08 28.64 16.65 5.27 16.65" fill="#fff" opacity="0.15"/><path d="M20.09,10.08l6,5.57H6.27V10.08H20.09m.79-2H4.27v9.57H31.19L20.88,8.08Z" fill="#fff"/><polygon points="34.85 16.65 26.7 9.08 35.61 9.08 43.76 16.65 34.85 16.65" fill="#fff" opacity="0.2"/><path d="M35.22,10.08l6,5.57h-6l-6-5.57h6m.78-2H24.15l10.31,9.57H46.31L36,8.08Z" fill="#fff"/><polygon points="54.82 20.02 48.9 20.02 42.96 20.02 40.83 20.02 38.61 20.02 37.22 20.02 36.61 20.02 24.77 20.02 24.38 20.02 22.76 20.02 22.76 55.92 24.38 55.92 30.41 55.92 36.61 55.92 37.22 55.92 38.61 55.92 40.83 55.92 42.96 55.92 48.9 55.92 62.17 55.92 62.17 28.33 62.17 26.77 54.82 20.02" fill="#fff"/><path d="M11.52,34.71A3.55,3.55,0,0,0,8,38.27a3.55,3.55,0,0,0,3.56,3.57,3.57,3.57,0,1,0,0-7.13Z" fill="#fff"/><path d="M1.83,20v35.9H20.76V20Zm4.33,8.9h6.5l1.8,1.78H6.16ZM8,50.38l-1.8,1.79V45H8Zm8.92,1.79H11.51V45h1.81v5.36h3.56ZM15.3,42.05a5.31,5.31,0,0,1-7.56,0,5.31,5.31,0,0,1,0-7.56,5.17,5.17,0,0,1,3.78-1.59,5.11,5.11,0,0,1,3.78,1.59,5.31,5.31,0,0,1,0,7.56ZM16.88,30.7l-1.79-1.78V23.56h1.79Z" fill="#fff"/></g></svg>