<?xml version="1.0" encoding="utf-8"?>
<!-- Generator: Adobe Illustrator 27.5.0, SVG Export Plug-In . SVG Version: 6.00 Build 0)  -->
<svg version="1.1" xmlns="http://www.w3.org/2000/svg" xmlns:xlink="http://www.w3.org/1999/xlink" x="0px" y="0px"
	 viewBox="0 0 64 64" style="enable-background:new 0 0 64 64;" xml:space="preserve">
<style type="text/css">
	.st0{opacity:0.15;fill:#FFFFFF;enable-background:new    ;}
	.st1{fill:#FFFFFF;}
	.st2{opacity:0.2;fill:#FFFFFF;enable-background:new    ;}
</style>
<g id="Folder">
	<polygon class="st0" points="3.3,16.6 3.3,9.1 18.5,9.1 26.6,16.6 	"/>
	<path class="st1" d="M18.1,10.1l6,5.6H4.3v-5.6H18.1 M18.9,8.1H2.3v9.6h26.9C29.2,17.6,18.9,8.1,18.9,8.1z"/>
	<polygon class="st2" points="32.8,16.6 24.7,9.1 33.6,9.1 41.8,16.6 	"/>
	<path class="st1" d="M33.2,10.1l6,5.6h-6l-6-5.6H33.2 M34,8.1H22.1l10.3,9.6h11.9L34,8.1z"/>
	<polygon class="st1" points="54.9,20 49,20 43.1,20 41,20 38.8,20 37.4,20 36.8,20 25,20 24.6,20 2.2,20 2.2,55.9 24.6,55.9 
		30.6,55.9 36.8,55.9 37.4,55.9 38.8,55.9 41,55.9 43.1,55.9 49,55.9 62.2,55.9 62.2,28.3 62.2,26.8 	"/>
</g>
</svg>
