<?xml version="1.0" encoding="utf-8"?>
<!-- Generator: Adobe Illustrator 27.5.0, SVG Export Plug-In . SVG Version: 6.00 Build 0)  -->
<svg version="1.1" xmlns="http://www.w3.org/2000/svg" xmlns:xlink="http://www.w3.org/1999/xlink" x="0px" y="0px"
	 viewBox="0 0 64 64" style="enable-background:new 0 0 64 64;" xml:space="preserve">
<style type="text/css">
	.st0{opacity:0.2;fill:#FFFFFF;enable-background:new    ;}
	.st1{fill:#FFFFFF;}
</style>
<g id="Package">
	<polygon class="st0" points="5.6,13.8 32.4,1.1 59.1,13.8 32.4,26.5 	"/>
	<path class="st1" d="M32.4,2.2l24.4,11.6L32.4,25.4L8,13.8L32.4,2.2 M32.4,0L3.3,13.8l29.1,13.8l29.1-13.8L32.4,0z"/>
	<polygon class="st0" points="34.5,30.5 61.5,17.6 61.6,49.6 34.5,62.4 	"/>
	<path class="st1" d="M60.5,19.2V49l-25,11.9V31.1L60.5,19.2 M62.5,16L33.5,29.8l0,34.2l29.1-13.8L62.5,16L62.5,16z"/>
	<polygon class="st1" points="2.2,16 2.2,50.2 31.2,64 31.2,29.8 	"/>
</g>
</svg>
