<svg id="Icons" xmlns="http://www.w3.org/2000/svg" viewBox="0 0 64 64"><g id="Package"><polygon points="5.64 13.78 32.37 1.11 59.1 13.78 32.37 26.46 5.64 13.78" fill="#fff" opacity="0.2"/><path d="M32.37,2.21l24.4,11.57L32.37,25.35,8,13.78,32.37,2.21m0-2.21L3.31,13.78,32.37,27.57,61.44,13.78,32.37,0Z" fill="#fff"/><polygon points="3.18 49.58 3.18 17.63 30.24 30.46 30.24 62.42 3.18 49.58" fill="#fff" opacity="0.2"/><path d="M4.18,19.21,29.24,31.09V60.84L4.18,49V19.21M2.18,16V50.22L31.24,64V29.83L2.18,16Z" fill="#fff"/><polygon points="34.47 30.46 61.53 17.62 61.56 49.58 34.5 62.42 34.47 30.46" fill="#fff" opacity="0.2"/><path d="M60.54,19.2l0,29.75L35.5,60.84l0-29.75L60.54,19.2m2-3.16L33.47,29.83,33.5,64,62.57,50.22l0-34.18Z" fill="#fff"/></g></svg>