<?xml version="1.0" encoding="utf-8"?>
<!-- Generator: Adobe Illustrator 27.5.0, SVG Export Plug-In . SVG Version: 6.00 Build 0)  -->
<svg version="1.1" xmlns="http://www.w3.org/2000/svg" xmlns:xlink="http://www.w3.org/1999/xlink" x="0px" y="0px"
	 viewBox="0 0 64 64" style="enable-background:new 0 0 64 64;" xml:space="preserve">
<style type="text/css">
	.st0{opacity:0.2;fill:#FFFFFF;enable-background:new    ;}
	.st1{fill:#FFFFFF;}
</style>
<g id="Archive">
	<polygon class="st0" points="18.3,63 7.5,54.8 7.5,1 37.8,1 56.5,19.9 56.5,63 	"/>
	<path class="st1" d="M37.4,2l9.1,9.2l9.1,9.2V62H18.7l-5.2-4l-5-3.8V2H37.4 M38.2,0H6.5v55.3l5.8,4.4L18,64h39.5V19.5l-9.6-9.8
		L38.2,0z"/>
	<polygon class="st1" points="36,25.7 33,25.7 33,21.2 35.8,21.2 35.8,19.2 33,19.2 33,14.8 35.8,14.8 35.8,12.8 33,12.8 33,8.3 
		35.8,8.3 35.8,6.3 33,6.3 33,2 31,2 31,6.3 27.9,6.3 27.9,8.3 31,8.3 31,12.8 27.9,12.8 27.9,14.8 31,14.8 31,19.2 27.9,19.2 
		27.9,21.2 31,21.2 31,25.7 28,25.7 28,27.7 31,27.7 31,32 33,32 33,27.7 36,27.7 	"/>
</g>
</svg>
