<svg id="Icons" xmlns="http://www.w3.org/2000/svg" viewBox="0 0 64 64"><g id="Project"><polygon points="26.62 30.28 26.62 1 37.8 1 56.51 19.94 56.51 60.17 26.62 30.28" fill="#fff" opacity="0.2"/><path d="M37.38,2l9.06,9.17,9.07,9.18V57.76L27.62,29.87V2h9.76m.84-2H25.62V30.69L57.51,62.58v-43L47.86,9.77,38.22,0Z" fill="#fff"/><polygon points="26.62 63 26.62 35.94 53.68 63 26.62 63" fill="#fff" opacity="0.2"/><path d="M27.62,38.35,51.27,62H27.62V38.35m-2-4.83V64H56.1L25.62,33.52Z" fill="#fff"/><path d="M15,11.15a2.53,2.53,0,0,1-2.53-2.53,2.43,2.43,0,0,1,.75-1.79A2.39,2.39,0,0,1,15,6.09a2.49,2.49,0,0,1,2.53,2.53,2.42,2.42,0,0,1-.72,1.8A2.45,2.45,0,0,1,15,11.15Z" fill="#fff"/><path d="M15,7.09a1.5,1.5,0,0,1,1.53,1.53,1.45,1.45,0,0,1-.43,1.1,1.44,1.44,0,0,1-1.1.43,1.42,1.42,0,0,1-1.08-.43,1.46,1.46,0,0,1-.45-1.1,1.44,1.44,0,0,1,.45-1.08A1.4,1.4,0,0,1,15,7.09m0-2a3.4,3.4,0,0,0-2.49,1,3.4,3.4,0,0,0-1,2.49A3.52,3.52,0,0,0,15,12.15a3.48,3.48,0,0,0,3.53-3.53A3.52,3.52,0,0,0,15,5.09Z" fill="#fff"/><path d="M18.32,63,7.49,54.77V1H22.62V63Zm.1-16.9,3-3v-8.5H8.67V45.4L8,46.1H18.42ZM8.71,25.75c0,.2,0,.42,0,.63V34.1l3.78-3.75v-4a.81.81,0,0,1,.77-.76.71.71,0,0,1,.54.24.65.65,0,0,1,.22.52v6.31h7.31V28.93H17.76V26.38a4.57,4.57,0,0,0-2.87-4.22l6.4-3.71V14.12l-4.44,2.54a5,5,0,0,0-1.07-1,4.52,4.52,0,0,0-5.77.53,4.37,4.37,0,0,0-1.34,3.21v6.39ZM15,2.3a6,6,0,0,0-4.45,1.88A6.07,6.07,0,0,0,8.67,8.62a6.05,6.05,0,0,0,1.87,4.46A6.07,6.07,0,0,0,15,14.93a6.07,6.07,0,0,0,4.45-1.86,6.07,6.07,0,0,0,1.86-4.45,6.08,6.08,0,0,0-1.86-4.45A6,6,0,0,0,15,2.3ZM12.45,19.38a.68.68,0,0,1,.23-.53.63.63,0,0,1,.53-.24.73.73,0,0,1,.54.22.72.72,0,0,1,.23.55l0,2.53a4.52,4.52,0,0,0-.74-.06,4.9,4.9,0,0,0-.77.06Z" fill="#fff"/><path d="M21.62,2V5.52a7.3,7.3,0,0,0-1.46-2,7.29,7.29,0,0,0-2-1.48h3.48M11.84,2a7.37,7.37,0,0,0-2,1.46A7.7,7.7,0,0,0,8.49,5.24V2h3.35m9.78,9.72v1.06l-1.16.67a7.71,7.71,0,0,0,1.16-1.73M8.49,12a7.3,7.3,0,0,0,1.34,1.78,8.6,8.6,0,0,0,.79.7,5.75,5.75,0,0,0-2.13,2V12m13.13,7.42v8.51H18.76V26.38a5.4,5.4,0,0,0-1.61-3.89,3,3,0,0,0-.32-.3l4.46-2.58.33-.19M13,31.23v2.35H10.61l.47-.47,1.78-1.76.12-.12m8.64,13.09V62h-3l-5.21-4-5-3.76v-7l.19-.19H18.83l.59-.58,2.2-2.2M23.62,0H6.49V55.27l5.75,4.37L18,64h5.64V0ZM15,13.93a5.13,5.13,0,0,1-3.74-1.56A5.07,5.07,0,0,1,9.67,8.62a5.07,5.07,0,0,1,1.57-3.74,5.23,5.23,0,0,1,7.49,0,5.1,5.1,0,0,1,1.56,3.74,5.12,5.12,0,0,1-1.56,3.75A5.12,5.12,0,0,1,15,13.93ZM16.48,18l3.81-2.18v2L15,21V19.38a1.71,1.71,0,0,0-.51-1.24,1.69,1.69,0,0,0-1.27-.53,1.64,1.64,0,0,0-1.23.53,1.69,1.69,0,0,0-.52,1.24v3.54l-.2.2L9.67,24V19.38a3.55,3.55,0,0,1,3.53-3.54,3.33,3.33,0,0,1,2,.63A3.39,3.39,0,0,1,16.48,18ZM9.67,31.69V26.38a3.42,3.42,0,0,1,1-2.49,3.46,3.46,0,0,1,2.51-1,3.53,3.53,0,0,1,3.54,3.53v3.55h3.53v1.76H15V26.38a1.71,1.71,0,0,0-.51-1.23,1.74,1.74,0,0,0-1.25-.53,1.79,1.79,0,0,0-1.77,1.76v3.55L9.67,31.69Zm.72,13.41,9.52-9.52h.53v2L12.93,45.1Zm-.72-1.82V40.74l5.16-5.16h2.54l-7.7,7.7Zm0-5.07V35.58H12.3L9.67,38.21Zm5.79,6.89,5-5v2.54L18,45.1Z" fill="#fff"/></g></svg>