<?xml version="1.0" encoding="utf-8"?>
<!-- Generator: Adobe Illustrator 24.2.0, SVG Export Plug-In . SVG Version: 6.00 Build 0)  -->
<svg version="1.1" id="Shark" xmlns="http://www.w3.org/2000/svg" xmlns:xlink="http://www.w3.org/1999/xlink" x="0px" y="0px"
	 viewBox="0 0 24 24" style="enable-background:new 0 0 24 24;" xml:space="preserve">
<style type="text/css">
	.st0{fill:url(#SVGID_1_);}
	.st1{fill:#9B9B9B;}
	.st2{fill:url(#SVGID_2_);}
</style>
<g>
	<linearGradient id="SVGID_1_" gradientUnits="userSpaceOnUse" x1="3.125" y1="12" x2="21.0107" y2="12">
		<stop  offset="2.567780e-04" style="stop-color:#EDEDED"/>
		<stop  offset="1" style="stop-color:#F9F9F9"/>
	</linearGradient>
	<path class="st0" d="M4.5,23.9c-0.8,0-1.4-0.6-1.4-1.4v-21c0-0.8,0.6-1.4,1.4-1.4h9.9L21,6.8l0,15.7c0,0.8-0.6,1.4-1.4,1.4H4.5z"/>
	<path class="st1" d="M14.3,0.2l6.6,6.6v15.7c0,0.7-0.6,1.3-1.3,1.3H4.5c-0.7,0-1.3-0.6-1.3-1.3v-21c0-0.7,0.6-1.3,1.3-1.3H14.3
		 M14.4,0H4.5C3.7,0,3,0.7,3,1.5v21C3,23.3,3.7,24,4.5,24h15.1c0.8,0,1.5-0.7,1.5-1.5V6.7C18.5,4.1,17,2.6,14.4,0L14.4,0z"/>
</g>
<g>
	
		<image style="overflow:visible;opacity:0.32;" width="26" height="25" xlink:href="443F1783F88EB426.png"  transform="matrix(1 0 0 1 3 -7)">
	</image>
	<g>
		<linearGradient id="SVGID_2_" gradientUnits="userSpaceOnUse" x1="14.3574" y1="3.4456" x2="20.7979" y2="3.4456">
			<stop  offset="2.567780e-04" style="stop-color:#EDEDED"/>
			<stop  offset="1" style="stop-color:#F9F9F9"/>
		</linearGradient>
		<polygon class="st2" points="14.4,6.6 14.5,0.3 20.8,6.6 		"/>
		<g>
			<path class="st1" d="M14.6,0.6l5.9,5.9l-6,0L14.6,0.6 M14.4,0l-0.2,6.7l6.9,0L14.4,0L14.4,0z"/>
		</g>
	</g>
</g>
</svg>
