<?xml version="1.0" encoding="utf-8"?>
<!-- Generator: Adobe Illustrator 24.2.0, SVG Export Plug-In . SVG Version: 6.00 Build 0)  -->
<svg version="1.1" id="Sundown" xmlns="http://www.w3.org/2000/svg" xmlns:xlink="http://www.w3.org/1999/xlink" x="0px" y="0px"
	 viewBox="0 0 24 24" style="enable-background:new 0 0 24 24;" xml:space="preserve">
<style type="text/css">
	.st0{fill:url(#SVGID_1_);}
	.st1{fill:#9B9B9B;}
	.st2{fill:url(#SVGID_2_);}
</style>
<g>
	<linearGradient id="SVGID_1_" gradientUnits="userSpaceOnUse" x1="3.125" y1="12" x2="21.0107" y2="12">
		<stop  offset="2.567780e-04" style="stop-color:#EDEDED"/>
		<stop  offset="1" style="stop-color:#F9F9F9"/>
	</linearGradient>
	<path class="st0" d="M6,23.9c-1.6,0-2.9-1.3-2.9-2.9V3c0-1.6,1.3-2.9,2.9-2.9h8.4l3.3,3.3L21,6.8L21,21c0,1.6-1.3,2.9-2.9,2.9H6z"
		/>
	<path class="st1" d="M14.3,0.2l6.5,6.5V21c0,1.5-1.2,2.8-2.8,2.8H6c-1.5,0-2.7-1.2-2.7-2.8V3c0-1.5,1.2-2.8,2.7-2.8H14.3 M14.4,0H6
		C4.3,0,3,1.3,3,3v18c0,1.7,1.3,3,3,3h12.1c1.7,0,3-1.3,3-3V6.7C18.5,4.1,17,2.6,14.4,0L14.4,0z"/>
</g>
<g>
	
		<image style="overflow:visible;opacity:0.5;" width="26" height="25" xlink:href="443F1783F88EB426.png"  transform="matrix(1 0 0 1 3 -7)">
	</image>
	<g>
		<linearGradient id="SVGID_2_" gradientUnits="userSpaceOnUse" x1="14.3767" y1="3.4456" x2="20.7979" y2="3.4456">
			<stop  offset="2.567780e-04" style="stop-color:#EDEDED"/>
			<stop  offset="1" style="stop-color:#F9F9F9"/>
		</linearGradient>
		<path class="st2" d="M15.3,6.6c-0.2,0-0.5-0.1-0.6-0.3s-0.3-0.4-0.2-0.6l0.1-5.4l6.3,6.3L15.3,6.6z"/>
		<g>
			<path class="st1" d="M14.6,0.6l5.9,5.9l-5.2,0c-0.2,0-0.4-0.1-0.5-0.2c-0.1-0.1-0.2-0.3-0.2-0.5L14.6,0.6 M14.4,0l-0.1,5.7
				c0,0.6,0.4,1,1,1l5.8,0L14.4,0L14.4,0z"/>
		</g>
	</g>
</g>
</svg>
