<?xml version="1.0" encoding="utf-8"?>
<!-- Generator: Adobe Illustrator 24.2.0, SVG Export Plug-In . SVG Version: 6.00 Build 0)  -->
<svg version="1.1" id="Sundown" xmlns="http://www.w3.org/2000/svg" xmlns:xlink="http://www.w3.org/1999/xlink" x="0px" y="0px"
	 viewBox="0 0 24 24" style="enable-background:new 0 0 24 24;" xml:space="preserve">
<style type="text/css">
	.st0{fill:#88D8ED;}
	.st1{fill:#408E9B;}
</style>
<g>
	<path class="st0" d="M3.5,20.8c-1.6,0-2.9-1.3-2.9-2.9V6.2c0-1.6,1.3-2.9,2.9-2.9h6.7c1,0,1.8,0.5,2.4,1.3l1.2,1.8h6.8
		c1.6,0,2.9,1.3,2.9,2.9v8.7c0,1.6-1.3,2.9-2.9,2.9H3.5z"/>
	<g>
		<path class="st1" d="M10.1,3.4c0.9,0,1.8,0.5,2.3,1.2l1.2,1.7l0.1,0.1h0.1l6.7,0c1.5,0,2.7,1.2,2.8,2.7l0,8.7
			c0,0.7-0.3,1.4-0.8,1.9c-0.5,0.5-1.2,0.8-1.9,0.8h-17c-1.5,0-2.8-1.2-2.8-2.8V6.2c0-1.5,1.2-2.8,2.8-2.8H10.1 M10.1,3.2H3.5
			c-1.7,0-3,1.3-3,3v11.7c0,1.7,1.3,3,3,3h17c1.7,0,3-1.3,3-3l0-8.7c0-1.7-1.3-3-3-3l-6.7,0l-1.2-1.7C12.1,3.7,11.1,3.2,10.1,3.2
			L10.1,3.2z"/>
	</g>
</g>
<g>
	
		<image style="overflow:visible;opacity:0.5;" width="42" height="31" xlink:href="C8819B0999B15EB.png"  transform="matrix(1 0 0 1 -9 -2)">
	</image>
	<g>
		<path class="st0" d="M3.5,20.8c-1.6,0-2.9-1.3-2.9-2.9v-6.3c0-1.6,1.3-2.9,2.9-2.9h17c1.6,0,2.9,1.3,2.9,2.9v6.3
			c0,1.6-1.3,2.9-2.9,2.9H3.5z"/>
		<path class="st1" d="M20.5,8.8c1.5,0,2.8,1.2,2.8,2.8v6.3c0,1.5-1.2,2.8-2.8,2.8h-17c-1.5,0-2.8-1.2-2.8-2.8v-6.3
			c0-1.5,1.2-2.8,2.8-2.8H20.5 M20.5,8.6h-17c-1.7,0-3,1.3-3,3v6.3c0,1.7,1.3,3,3,3h17c1.7,0,3-1.3,3-3v-6.3
			C23.5,9.9,22.2,8.6,20.5,8.6L20.5,8.6z"/>
	</g>
</g>
</svg>
