<?xml version="1.0" encoding="utf-8"?>
<!-- Generator: Adobe Illustrator 24.2.0, SVG Export Plug-In . SVG Version: 6.00 Build 0)  -->
<svg version="1.1" id="Sundown" xmlns="http://www.w3.org/2000/svg" xmlns:xlink="http://www.w3.org/1999/xlink" x="0px" y="0px"
	 viewBox="0 0 24 24" style="enable-background:new 0 0 24 24;" xml:space="preserve">
<style type="text/css">
	.st0{fill:#88D8ED;}
	.st1{fill:#408E9B;}
</style>
<g>
	<g>
		<path class="st0" d="M3.5,22c-1.6,0-2.9-1.5-2.9-3.3V5.3C0.6,3.5,1.9,2,3.5,2h6.7c1,0,1.8,0.6,2.4,1.5l1.2,2.1h6.8
			c1.6,0,2.9,1.5,2.9,3.3v9.9c0,1.8-1.3,3.3-2.9,3.3H3.5V22z"/>
		<g>
			<path class="st1" d="M10.1,2.1c0.9,0,1.8,0.6,2.3,1.4l1.2,1.9l0.1,0.1h0.1h6.7c1.5,0,2.7,1.4,2.8,3.1v9.9c0,0.8-0.3,1.6-0.8,2.2
				c-0.5,0.6-1.2,0.9-1.9,0.9h-17c-1.5,0-2.8-1.4-2.8-3.2V5.3c0-1.7,1.2-3.2,2.8-3.2L10.1,2.1 M10.1,1.9H3.5c-1.7,0-3,1.5-3,3.4
				v13.4c0,1.9,1.3,3.4,3,3.4h17c1.7,0,3-1.5,3-3.4V8.7c0-1.9-1.3-3.4-3-3.4h-6.7l-1.2-1.9C12.1,2.5,11.1,1.9,10.1,1.9L10.1,1.9z"/>
		</g>
	</g>
	<g>
		<g>
			<g>
				
					<image style="overflow:visible;opacity:0.5;" width="42" height="32" xlink:href="C8819B0999B15EC.png"  transform="matrix(1 0 0 1 -9 -1)">
				</image>
				<g>
					<path class="st0" d="M3.5,22c-1.6,0-2.9-1.4-2.9-3.2v-6.9c0-1.8,1.3-3.2,2.9-3.2h17c1.6,0,2.9,1.4,2.9,3.2v6.9
						c0,1.8-1.3,3.2-2.9,3.2C20.5,22,3.5,22,3.5,22z"/>
				</g>
			</g>
			<path class="st1" d="M20.5,8.8c1.5,0,2.8,1.3,2.8,3.1v6.9c0,1.7-1.2,3.1-2.8,3.1h-17c-1.5,0-2.8-1.3-2.8-3.1v-6.9
				c0-1.7,1.2-3.1,2.8-3.1L20.5,8.8 M20.5,8.6h-17c-1.7,0-3,1.4-3,3.3v6.9c0,1.9,1.3,3.3,3,3.3h17c1.7,0,3-1.4,3-3.3v-6.9
				C23.5,10,22.2,8.6,20.5,8.6L20.5,8.6z"/>
		</g>
	</g>
</g>
</svg>
