<?xml version="1.0" encoding="utf-8"?>
<!-- Generator: Adobe Illustrator 24.2.0, SVG Export Plug-In . SVG Version: 6.00 Build 0)  -->
<svg version="1.1" id="Sundown" xmlns="http://www.w3.org/2000/svg" xmlns:xlink="http://www.w3.org/1999/xlink" x="0px" y="0px"
	 viewBox="0 0 24 24" style="enable-background:new 0 0 24 24;" xml:space="preserve">
<style type="text/css">
	.st0{fill:url(#SVGID_1_);}
	.st1{fill:#0058AA;}
	.st2{opacity:0.5;fill:none;stroke:#FFFFFF;stroke-width:0.25;stroke-miterlimit:10;enable-background:new    ;}
	.st3{fill:url(#SVGID_2_);}
	.st4{fill:#FFFFFF;}
</style>
<g>
	<linearGradient id="SVGID_1_" gradientUnits="userSpaceOnUse" x1="12.05" y1="23.9" x2="12.05" y2="9.999990e-02">
		<stop  offset="0" style="stop-color:#0079CC"/>
		<stop  offset="1" style="stop-color:#005FCC"/>
	</linearGradient>
	<path class="st0" d="M6,23.9c-1.6,0-2.9-1.3-2.9-2.9V3c0-1.6,1.3-2.9,2.9-2.9h8.4l3.3,3.3L21,6.8V21c0,1.6-1.3,2.9-2.9,2.9H6z"/>
	<path class="st1" d="M14.3,0.2l6.5,6.5V21c0,1.5-1.2,2.8-2.8,2.8H5.9c-1.5,0-2.7-1.2-2.7-2.8V3c0-1.5,1.2-2.8,2.7-2.8L14.3,0.2
		 M14.4,0H5.9C4.3,0,3,1.3,3,3v18c0,1.7,1.3,3,3,3h12c1.7,0,3-1.3,3-3V6.7C18.4,4.1,17,2.6,14.4,0L14.4,0z"/>
</g>
<path class="st2" d="M16.3,20.7H7.7c-1.1,0-2.1-0.9-2.1-2.1V5.8c0-1.4,1.1-2.5,2.5-2.5h8.2c1.1,0,2.1,0.9,2.1,2.1v13.3
	C18.4,19.8,17.4,20.7,16.3,20.7z"/>
<g>
	
		<image style="overflow:visible;opacity:0.5;enable-background:new    ;" width="26" height="25" xlink:href="BEE91045C478E223.png"  transform="matrix(1 0 0 1 3 -7)">
	</image>
	<g>
		<linearGradient id="SVGID_2_" gradientUnits="userSpaceOnUse" x1="14.3727" y1="3.45" x2="20.8" y2="3.45">
			<stop  offset="0" style="stop-color:#0079CC"/>
			<stop  offset="1" style="stop-color:#005FCC"/>
		</linearGradient>
		<path class="st3" d="M15.2,6.6c-0.2,0-0.5-0.1-0.6-0.3s-0.3-0.4-0.2-0.6l0.1-5.4l6.3,6.3H15.2z"/>
		<path class="st1" d="M14.6,0.6l5.9,5.9h-5.2c-0.2,0-0.4-0.1-0.5-0.2S14.6,6,14.6,5.8V0.6 M14.3,0l-0.1,5.7c0,0.6,0.4,1,1,1H21
			L14.3,0L14.3,0z"/>
	</g>
</g>
<path class="st4" d="M7.3,17.1v-4.8l0,0l0.9-0.5h0.1l0.6,0.4l1.7,1.4l0,0l0,0l3.2-3.2l0.5-0.5c0,0,0,0,0.1,0l0.2,0.1l2.1,0.8
	c0.1,0,0,0,0,0.1v7.5c0,0,0,0,0,0.1l-0.9,0.4l-1.4,0.6c0,0,0,0-0.1,0l-1.9-1.9l-1.7-1.7l0,0h-0.1L9,17.1l-0.6,0.4c0,0,0,0-0.1,0
	l-0.1-0.1L7.3,17.1L7.3,17.1z M14.3,16.4V13l0,0l-0.4,0.3l-1.2,1l-0.5,0.4l0,0L14.3,16.4z M8.4,15.8c0,0,1.1-1,1.2-1.1l-1.1-1.1l0,0
	l0,0C8.4,13.9,8.4,15.8,8.4,15.8z"/>
</svg>
