<?xml version="1.0" encoding="utf-8"?>
<!-- Generator: Adobe Illustrator 24.2.0, SVG Export Plug-In . SVG Version: 6.00 Build 0)  -->
<svg version="1.1" id="Sundown" xmlns="http://www.w3.org/2000/svg" xmlns:xlink="http://www.w3.org/1999/xlink" x="0px" y="0px"
	 viewBox="0 0 64 64" style="enable-background:new 0 0 64 64;" xml:space="preserve">
<style type="text/css">
	.st0{fill:url(#SVGID_1_);}
	.st1{fill:#0058AA;}
	.st2{opacity:0.5;fill:none;stroke:#FFFFFF;stroke-width:0.25;stroke-miterlimit:10;enable-background:new    ;}
	.st3{fill:url(#SVGID_2_);}
	.st4{fill:#FFFFFF;}
</style>
<g>
	<g>
		<linearGradient id="SVGID_1_" gradientUnits="userSpaceOnUse" x1="32.1333" y1="63.7333" x2="32.1333" y2="0.2667">
			<stop  offset="0" style="stop-color:#0079CC"/>
			<stop  offset="1" style="stop-color:#005FCC"/>
		</linearGradient>
		<path class="st0" d="M16,63.7c-4.3,0-7.7-3.5-7.7-7.7V8c0-4.3,3.5-7.7,7.7-7.7h22.4l8.8,8.8l8.8,9.1V56c0,4.3-3.5,7.7-7.7,7.7H16z
			"/>
		<path class="st1" d="M38.1,0.5l17.3,17.3V56c0,4-3.2,7.5-7.5,7.5H15.7c-4,0-7.2-3.2-7.2-7.5V8c0-4,3.2-7.5,7.2-7.5L38.1,0.5
			 M38.4,0H15.7C11.5,0,8,3.5,8,8v48c0,4.5,3.5,8,8,8h32c4.5,0,8-3.5,8-8V17.9C49.1,10.9,45.3,6.9,38.4,0L38.4,0z"/>
	</g>
	<path class="st2" d="M43.5,55.2H20.5c-2.9,0-5.6-2.4-5.6-5.6V15.5c0-3.7,2.9-6.7,6.7-6.7h21.9c2.9,0,5.6,2.4,5.6,5.6v35.5
		C49.1,52.8,46.4,55.2,43.5,55.2z"/>
	<g>
		<g>
			
				<image style="overflow:visible;opacity:0.15;" width="37" height="36" xlink:href="BEE91045C478E226.png"  transform="matrix(1 0 0 1 26 -7)">
			</image>
			<g>
				<g>
					<linearGradient id="SVGID_2_" gradientUnits="userSpaceOnUse" x1="38.3273" y1="9.2" x2="55.4667" y2="9.2">
						<stop  offset="0" style="stop-color:#0079CC"/>
						<stop  offset="1" style="stop-color:#005FCC"/>
					</linearGradient>
					<path class="st3" d="M40.5,17.6c-0.5,0-1.3-0.3-1.6-0.8c-0.3-0.5-0.8-1.1-0.5-1.6l0.3-14.4l16.8,16.8H40.5z"/>
					<path class="st1" d="M38.9,1.6l15.7,15.7H40.8c-0.5,0-1.1-0.3-1.3-0.5s-0.5-0.8-0.5-1.3V1.6 M38.1,0l-0.3,15.2
						c0,1.6,1.1,2.7,2.7,2.7H56L38.1,0L38.1,0z"/>
				</g>
			</g>
		</g>
	</g>
	<path class="st4" d="M19.5,45.6V32.8l0,0l2.4-1.3h0.3l1.6,1.1l4.5,3.7l0,0l0,0l8.5-8.5l1.3-1.3c0,0,0,0,0.3,0l0.5,0.3l5.6,2.1
		c0.3,0,0,0,0,0.3v20c0,0,0,0,0,0.3l-2.4,1.1L38.4,52c0,0,0,0-0.3,0l-5.1-5.1l-4.5-4.5l0,0h-0.3L24,45.6l-1.6,1.1c0,0,0,0-0.3,0
		l-0.3-0.3L19.5,45.6L19.5,45.6z M38.1,43.7v-9.1l0,0l-1.1,0.8l-3.2,2.7l-1.3,1.1l0,0L38.1,43.7z M22.4,42.1c0,0,2.9-2.7,3.2-2.9
		l-2.9-2.9l0,0l0,0C22.4,37.1,22.4,42.1,22.4,42.1z"/>
</g>
</svg>
