<svg id="Shark" xmlns="http://www.w3.org/2000/svg" xmlns:xlink="http://www.w3.org/1999/xlink" viewBox="0 0 14 12"><defs><clipPath id="clip-path"><path d="M-69.91-163.92l-4.7,2.7a.76.76,0,0,0-.2.5v5.4a.55.55,0,0,0,.3.5l4.7,2.7a.45.45,0,0,0,.5,0l4.7-2.7a.55.55,0,0,0,.3-.5v-5.4a.55.55,0,0,0-.3-.5l-4.7-2.7a.37.37,0,0,0-.3-.1.37.37,0,0,0-.3.1" style="fill:none"/></clipPath><linearGradient id="linear-gradient" x1="-1824.63" y1="-180.72" x2="-1824.5" y2="-180.72" gradientTransform="translate(-111304.66 179742.19) rotate(116.11) scale(115.31)" gradientUnits="userSpaceOnUse"><stop offset="0.3" stop-color="#3e863d"/><stop offset="0.5" stop-color="#55934f"/><stop offset="0.8" stop-color="#5aad45"/></linearGradient><clipPath id="clip-path-2"><path d="M-74.71-154.92c0,.1.1.1.2.1l4,2.3.7.4c0,.1.2.1.3.1h.1l5-9.1-.1-.1-3.2-1.8-1.6-.9a.1.1,0,0,0-.1-.1Z" style="fill:none"/></clipPath><linearGradient id="linear-gradient-2" x1="-1821.05" y1="-154.16" x2="-1820.97" y2="-154.16" gradientTransform="matrix(142.41, -105.22, 105.22, 142.41, 275555.59, -169650.46)" gradientUnits="userSpaceOnUse"><stop offset="0.57" stop-color="#3e863d"/><stop offset="0.72" stop-color="#619857"/><stop offset="1" stop-color="#76ac64"/></linearGradient><clipPath id="clip-path-3"><path d="M-69.61-164a.37.37,0,0,0-.3.1l-4.6,2.7,5,9.2c.1,0,.2,0,.2-.1l4.7-2.7c.2-.1.3-.2.3-.4l-5.2-8.8h-.1" style="fill:none"/></clipPath><linearGradient id="linear-gradient-3" x1="-1812.18" y1="-156.95" x2="-1812.1" y2="-156.95" gradientTransform="translate(235386.5 20392.08) scale(129.89)" gradientUnits="userSpaceOnUse"><stop offset="0.16" stop-color="#6bbf47"/><stop offset="0.38" stop-color="#79b461"/><stop offset="0.47" stop-color="#75ac64"/><stop offset="0.7" stop-color="#659e5a"/><stop offset="0.9" stop-color="#3e863d"/></linearGradient><clipPath id="clip-path-4"><path id="SVGID" d="M8.45.08,3.74,2.79a.58.58,0,0,0-.28.49V8.72a.58.58,0,0,0,.28.49l4.71,2.71a.52.52,0,0,0,.56,0l4.71-2.71A.58.58,0,0,0,14,8.72V3.28a.58.58,0,0,0-.28-.49L9,.08A.54.54,0,0,0,8.73,0a.6.6,0,0,0-.29.08" style="fill:none"/></clipPath><linearGradient id="linear-gradient-4" x1="-951.46" y1="554.26" x2="-951.32" y2="554.26" gradientTransform="matrix(-50.75, 103.54, 103.54, 50.75, -105662.61, 70378.79)" xlink:href="#linear-gradient"/><clipPath id="clip-path-5"><path id="SVGID-2" data-name="SVGID" d="M3.57,9.06a.8.8,0,0,0,.17.15l4,2.33.67.38a.54.54,0,0,0,.33.08l.11,0,5-9.08a.45.45,0,0,0-.13-.11L10.64,1,9,.08A.47.47,0,0,0,8.86,0Z" style="fill:none"/></clipPath><linearGradient id="linear-gradient-5" x1="-949.9" y1="542.76" x2="-949.81" y2="542.76" gradientTransform="matrix(142.41, -105.22, -105.22, -142.41, 192385.48, -22645.79)" xlink:href="#linear-gradient-2"/><clipPath id="clip-path-6"><path id="SVGID-3" data-name="SVGID" d="M8.67,0a.58.58,0,0,0-.22.08L3.76,2.78,8.81,12a.48.48,0,0,0,.2-.07l4.71-2.71A.6.6,0,0,0,14,8.82L8.84,0H8.68" style="fill:none"/></clipPath><linearGradient id="linear-gradient-6" x1="-945.82" y1="544.04" x2="-945.74" y2="544.04" gradientTransform="matrix(129.89, 0, 0, -129.89, 122855.17, 70670.52)" xlink:href="#linear-gradient-3"/></defs><g style="clip-path:url(#clip-path)"><path d="M18.79,2.28,5.49-4.22l-6.8,13.9L12,16.18Z" style="fill:url(#linear-gradient)"/></g><g style="clip-path:url(#clip-path-2)"><path d="M-2.11,4.28,7.29,17l12.4-9.1-9.4-12.7Z" style="fill:url(#linear-gradient-2)"/></g><g style="clip-path:url(#clip-path-3)"><path d="M3.79,0V12H14V0Z" style="fill:url(#linear-gradient-3)"/></g><g style="clip-path:url(#clip-path-4)"><path d="M18.75,2.33,5.5-4.17-1.3,9.7,12,16.19Z" style="fill:url(#linear-gradient-4)"/></g><g style="clip-path:url(#clip-path-5)"><path d="M-2.16,4.25,7.2,16.92,19.58,7.77,10.22-4.89Z" style="fill:url(#linear-gradient-5)"/></g><g style="clip-path:url(#clip-path-6)"><path d="M3.76,0V12H14V0Z" style="fill:url(#linear-gradient-6)"/></g></svg>